<svg width="13" height="12" viewBox="0 0 13 12" fill="none" xmlns="http://www.w3.org/2000/svg">
    <path d="M8.30698 0.105328C8.15624 -0.0119146 7.95188 -0.0330553 7.78034 0.0508462C7.60879 0.134748 7.50001 0.309037 7.50001 0.500004V2.49274C7.45712 2.49456 7.41219 2.49701 7.36537 2.5002C6.96247 2.52766 6.41128 2.61105 5.82119 2.83704C5.11343 3.10809 4.34877 3.58508 3.72601 4.41126C3.10338 5.23727 2.64499 6.38259 2.50206 7.95474C2.48301 8.16438 2.5973 8.36351 2.78793 8.4528C2.97857 8.54209 3.20471 8.50241 3.35356 8.35356C4.54248 7.16464 5.72298 6.57773 6.59562 6.28685C6.9558 6.16679 7.2643 6.09693 7.50001 6.0563V8C7.50001 8.1969 7.61557 8.37546 7.79518 8.45612C7.9748 8.53678 8.18503 8.50452 8.33219 8.37371L12.8322 4.37371C12.9432 4.27502 13.0046 4.13207 12.9997 3.98361C12.9949 3.83514 12.9242 3.69653 12.807 3.60533L8.30698 0.105328ZM7.94293 3.49679L7.94571 3.49705C8.08652 3.51223 8.2279 3.46706 8.33347 3.37257C8.43945 3.27772 8.50001 3.14223 8.50001 3V1.52232L11.7186 4.02564L8.50001 6.88658V5.5C8.50001 5.22386 8.27615 5 8.00001 5L7.99892 5L7.99759 5.00001L7.99425 5.00003L7.98483 5.00014L7.9552 5.00087C7.93074 5.00166 7.89695 5.00316 7.85445 5.00599C7.76945 5.01166 7.64951 5.02268 7.49961 5.04409C7.1999 5.08691 6.77971 5.17139 6.2794 5.33816C5.55493 5.57965 4.66479 5.99299 3.7319 6.69863C3.9264 5.98158 4.2077 5.43355 4.52456 5.01319C5.01593 4.36132 5.61523 3.98675 6.17883 3.7709C6.65371 3.58903 7.10252 3.52044 7.43338 3.49788C7.59809 3.48666 7.73137 3.48699 7.82114 3.48988C7.86596 3.49133 7.89972 3.49341 7.92089 3.49498L7.94293 3.49679ZM2.5 1C1.11929 1 0 2.11929 0 3.5V9.5C0 10.8807 1.11929 12 2.5 12H8.5C9.88071 12 11 10.8807 11 9.5V8.5C11 8.22386 10.7761 8 10.5 8C10.2239 8 10 8.22386 10 8.5V9.5C10 10.3284 9.32843 11 8.5 11H2.5C1.67157 11 1 10.3284 1 9.5V3.5C1 2.67157 1.67157 2 2.5 2H4.5C4.77614 2 5 1.77614 5 1.5C5 1.22386 4.77614 1 4.5 1H2.5Z" fill="#1A1A1A"/>
</svg>