<svg width="21" height="20" viewBox="0 0 21 20" fill="none" xmlns="http://www.w3.org/2000/svg">
<path d="M13.0439 1.8241C12.2451 0.986972 10.9523 1.43724 10.613 2.41454C10.3331 3.2208 9.96943 4.1863 9.61509 4.8972C8.55545 7.02312 7.93687 8.2327 6.23077 9.74622C6.0044 9.94704 5.71267 10.1089 5.39008 10.2364C4.26095 10.6827 3.19912 11.8525 3.47685 13.2411L3.82988 15.0062C4.01559 15.9348 4.70998 16.6787 5.62354 16.9279L11.2233 18.4551C13.7688 19.1493 16.3627 17.5146 16.8347 14.9186L17.5187 11.1569C17.8535 9.31539 16.4388 7.62025 14.5671 7.62025H13.6835L13.6939 7.56802C13.7739 7.15984 13.8704 6.59771 13.9348 5.98509C13.9991 5.37482 14.0331 4.7007 13.9829 4.07257C13.9336 3.4562 13.799 2.82341 13.4786 2.3429C13.3691 2.17868 13.2065 1.99452 13.0439 1.8241Z" fill="#242424"/>
</svg>
