<svg width="32" height="32" viewBox="0 0 32 32" fill="none" xmlns="http://www.w3.org/2000/svg">
<g id="Phone">
<path id="Shape" d="M15 20C14.7239 20 14.5 20.2239 14.5 20.5C14.5 20.7761 14.7239 21 15 21H17C17.2761 21 17.5 20.7761 17.5 20.5C17.5 20.2239 17.2761 20 17 20H15ZM13 8C11.8954 8 11 8.89543 11 10V22C11 23.1046 11.8954 24 13 24H19C20.1046 24 21 23.1046 21 22V10C21 8.89543 20.1046 8 19 8H13ZM12 10C12 9.44772 12.4477 9 13 9H19C19.5523 9 20 9.44772 20 10V22C20 22.5523 19.5523 23 19 23H13C12.4477 23 12 22.5523 12 22V10Z" fill="#242424"/>
</g>
</svg>
