<svg width="14" height="14" viewBox="0 0 14 14" fill="none" xmlns="http://www.w3.org/2000/svg">
<path d="M0.5 0C0.22386 0 0 0.22386 0 0.5V4.5C0 4.77614 0.22386 5 0.5 5C0.77614 5 1 4.77614 1 4.5V1.70711L4.14645 4.85355C4.34171 5.04882 4.65829 5.04882 4.85355 4.85355C5.04882 4.65829 5.04882 4.34171 4.85355 4.14645L1.70711 1H4.5C4.77614 1 5 0.77614 5 0.5C5 0.22386 4.77614 0 4.5 0H0.5ZM0.5 14C0.22386 14 0 13.7761 0 13.5V9.5C0 9.2239 0.22386 9 0.5 9C0.77614 9 1 9.2239 1 9.5V12.2929L4.14645 9.1464C4.34171 8.9512 4.65829 8.9512 4.85355 9.1464C5.04882 9.3417 5.04882 9.6583 4.85355 9.8536L1.70711 13H4.5C4.77614 13 5 13.2239 5 13.5C5 13.7761 4.77614 14 4.5 14H0.5ZM14 0.5C14 0.22386 13.7761 0 13.5 0H9.5C9.2239 0 9 0.22386 9 0.5C9 0.77614 9.2239 1 9.5 1H12.2929L9.1464 4.14645C8.9512 4.34171 8.9512 4.65829 9.1464 4.85355C9.3417 5.04882 9.6583 5.04882 9.8536 4.85355L13 1.70711V4.5C13 4.77614 13.2239 5 13.5 5C13.7761 5 14 4.77614 14 4.5V0.5ZM13.5 14C13.7761 14 14 13.7761 14 13.5V9.5C14 9.2239 13.7761 9 13.5 9C13.2239 9 13 9.2239 13 9.5V12.2929L9.8536 9.1464C9.6583 8.9512 9.3417 8.9512 9.1464 9.1464C8.9512 9.3417 8.9512 9.6583 9.1464 9.8536L12.2929 13H9.5C9.2239 13 9 13.2239 9 13.5C9 13.7761 9.2239 14 9.5 14H13.5Z" fill="#212121"/>
</svg>