<svg width="10" height="12" viewBox="0 0 10 12" fill="none" xmlns="http://www.w3.org/2000/svg">
<path d="M8.45061 7.19848C9.1959 7.19848 9.8 7.80267 9.8 8.54806V8.89336C9.8 9.43004 9.60823 9.94901 9.25932 10.3567C8.31765 11.457 6.88528 12 4.99804 12C3.11044 12 1.67879 11.4568 0.738982 10.3561C0.391109 9.94865 0.199997 9.43046 0.199997 8.89468V8.54806C0.199997 7.80267 0.804126 7.19848 1.54936 7.19848H8.45061ZM8.45061 8.09864H1.54936C1.3012 8.09864 1.10003 8.29986 1.10003 8.54806V8.89468C1.10003 9.21616 1.2147 9.52708 1.42341 9.7715C2.17542 10.6523 3.35499 11.0998 4.99804 11.0998C6.64108 11.0998 7.82167 10.6523 8.57554 9.77138C8.78494 9.52672 8.89997 9.21532 8.89997 8.89336V8.54806C8.89997 8.29986 8.69878 8.09864 8.45061 8.09864ZM4.99804 0C6.65494 0 7.99814 1.34339 7.99814 3.00054C7.99814 4.65769 6.65494 6.00109 4.99804 6.00109C3.34111 6.00109 1.99792 4.65769 1.99792 3.00054C1.99792 1.34339 3.34111 0 4.99804 0ZM4.99804 0.900161C3.83821 0.900161 2.89795 1.84054 2.89795 3.00054C2.89795 4.16054 3.83821 5.10092 4.99804 5.10092C6.15788 5.10092 7.09811 4.16054 7.09811 3.00054C7.09811 1.84054 6.15788 0.900161 4.99804 0.900161Z" fill="url(#paint0_linear_289_18368)"/>
<defs>
<linearGradient id="paint0_linear_289_18368" x1="0.777774" y1="1.56666e-05" x2="10.7383" y2="0.229854" gradientUnits="userSpaceOnUse">
<stop stop-color="#B547D0"/>
<stop offset="0.080944" stop-color="#9848D0"/>
<stop offset="0.431197" stop-color="#5740E0"/>
<stop offset="0.703125" stop-color="#4F44D3"/>
<stop offset="0.85" stop-color="#465EBF"/>
<stop offset="0.959854" stop-color="#1587A0"/>
</linearGradient>
</defs>
</svg>
