<svg viewBox="0 0 15 15" fill="none" xmlns="http://www.w3.org/2000/svg"><path fill="#262626" d="M7.5 15a7.386 7.386 0 0 1-1.992-.266 7.8 7.8 0 0 1-1.797-.75 6.938 6.938 0 0 1-1.516-1.171 8.173 8.173 0 0 1-1.172-1.524A7.058 7.058 0 0 1 .266 9.5 7.854 7.854 0 0 1 0 7.5c0-.693.089-1.357.266-1.992a7.8 7.8 0 0 1 .75-1.797 6.937 6.937 0 0 1 1.171-1.516 8.175 8.175 0 0 1 1.524-1.172A7.058 7.058 0 0 1 5.5.266 7.854 7.854 0 0 1 7.5 0c.693 0 1.357.089 1.992.266a7.8 7.8 0 0 1 1.797.75 6.937 6.937 0 0 1 1.516 1.171c.448.459.838.967 1.172 1.524a7.06 7.06 0 0 1 .757 1.789 7.88 7.88 0 0 1 .266 2c0 .693-.088 1.357-.266 1.992a7.801 7.801 0 0 1-.75 1.797 6.937 6.937 0 0 1-1.171 1.516 8.177 8.177 0 0 1-1.524 1.172 7.06 7.06 0 0 1-1.789.757 7.857 7.857 0 0 1-2 .266Zm0-14a6.31 6.31 0 0 0-1.727.234 6.583 6.583 0 0 0-2.867 1.672c-.4.396-.74.834-1.015 1.313a7.033 7.033 0 0 0-.657 1.554A5.982 5.982 0 0 0 1 7.5c0 .594.078 1.167.234 1.719.157.552.375 1.07.657 1.554a6.512 6.512 0 0 0 2.328 2.336c.479.282.997.5 1.554.657A6.363 6.363 0 0 0 7.5 14a6.29 6.29 0 0 0 1.719-.234 6.733 6.733 0 0 0 1.554-.657 6.513 6.513 0 0 0 2.336-2.328c.282-.479.5-.997.657-1.554A6.363 6.363 0 0 0 14 7.5a6.29 6.29 0 0 0-.234-1.719 6.735 6.735 0 0 0-.657-1.554 6.511 6.511 0 0 0-3.883-2.992A6.365 6.365 0 0 0 7.5 1ZM7 6h1v5H7V6Zm0-2h1v1H7V4Z"/></svg>