<svg width="30" height="14" viewBox="0 0 30 14" fill="none" xmlns="http://www.w3.org/2000/svg">
<g clip-path="url(#clip0_20_99477)">
<path class="outer" fill-rule="evenodd" clip-rule="evenodd" d="M22.5999 0H7.3999C3.4999 0 0.399902 3.1 0.399902 7C0.399902 10.9 3.4999 14 7.3999 14H22.5999C26.4999 14 29.5999 10.9 29.5999 7C29.5999 3.1 26.3999 0 22.5999 0ZM1.5999 7C1.5999 3.8 4.1999 1.2 7.3999 1.2H17.2999L14.1999 12.8H7.3999C4.1999 12.8 1.5999 10.2 1.5999 7Z" fill="#0066FF"/>
<path class="uncheck" d="M24.6 4.0001C24.8 4.2001 24.8 4.6001 24.6 4.8001L22.5 7.0001L24.7 9.2001C24.9 9.4001 24.9 9.8001 24.7 10.0001C24.5 10.2001 24.1 10.2001 23.9 10.0001L21.7 7.8001L19.5 10.0001C19.3 10.2001 18.9 10.2001 18.7 10.0001C18.5 9.8001 18.5 9.4001 18.7 9.2001L20.8 7.0001L18.6 4.8001C18.4 4.6001 18.4 4.2001 18.6 4.0001C18.8 3.8001 19.2 3.8001 19.4 4.0001L21.6 6.2001L23.8 4.0001C23.9999 3.8001 24.4 3.8001 24.6 4.0001Z" fill="white"/>
<path class="check" d="M12.7 4.09995C12.9 4.29995 13 4.69995 12.8 4.89995L8.6 9.79995C8.5 9.89995 8.4 9.99995 8.3 9.99995C8.1 10.1 7.8 10.1 7.6 9.89995L5.4 7.69995C5.2 7.49995 5.2 7.09995 5.4 6.89995C5.6 6.69995 6 6.69995 6.2 6.89995L8 8.59995L11.8 4.09995C12 3.89995 12.4 3.89995 12.7 4.09995Z" fill="#0066FF"/>
</g>
<defs>
<clipPath id="clip0_20_99477">
<rect width="30" height="14" fill="white"/>
</clipPath>
</defs>
</svg>
