<svg width="290" height="200" viewBox="0 0 290 200" fill="none" xmlns="http://www.w3.org/2000/svg">
<path d="M146.818 200C146.896 200 146.965 200 147.043 200C147.043 200 147.053 200 147.063 200C147.141 200 147.2 200 147.278 200C147.288 200 147.298 200 147.308 200C147.376 200 147.445 200 147.513 200C147.523 200 147.533 200 147.553 200C147.621 200 147.69 200 147.758 200C147.768 200 147.778 200 147.788 200C147.856 200 147.925 200 148.003 200L148.023 200C148.101 200 148.17 200 148.239 200C148.239 200 148.239 200 148.248 200C148.317 200 148.395 200 148.464 200C148.464 200 148.464 200 148.474 200C148.552 200 148.611 200 148.689 200C148.699 200 148.709 200 148.728 200C148.797 200 148.866 200 148.934 200C148.944 200 148.954 200 148.964 200C149.032 200 149.101 200 149.169 200C149.179 200 149.189 200 149.209 200C149.277 200 149.346 200 149.414 200C149.424 200 149.434 200 149.444 200C149.522 200 149.581 200 149.659 200C149.659 200 149.669 200 149.679 200C149.757 200 149.826 200 149.895 200C149.973 200 150.042 200 150.11 200C150.11 200 150.13 200 150.14 200C150.208 200 150.277 200 150.345 200C150.355 200 150.365 200 150.385 200C150.453 200 150.512 200 150.58 200C150.6 200 150.61 200 150.62 200C150.688 200 150.757 200 150.825 200C150.825 200 150.845 200 150.855 200C150.933 200 150.992 200 151.07 200C151.07 200 151.08 200 151.09 200C151.168 200 151.237 200 151.306 200C151.384 200 151.443 200 151.521 200C151.521 200 151.541 200 151.551 200C151.619 200 151.688 200 151.756 200C151.766 200 151.776 200 151.786 200C151.854 200 151.923 200 151.992 200C152.001 200 152.011 200 152.031 200C152.099 200 152.168 200 152.237 200C152.246 200 152.256 200 152.276 200C152.344 200 152.413 200 152.481 200C152.491 200 152.501 200 152.511 200C152.589 200 152.648 200 152.726 200C152.726 200 152.726 200 152.736 200C152.805 200 152.883 200 152.952 200L152.971 200C153.04 200 153.109 200 153.177 200C153.187 200 153.207 200 153.216 200C153.285 200 153.354 200 153.412 200C153.422 200 153.442 200 153.461 200C153.53 200 153.589 200 153.657 200C153.667 200 153.687 200 153.697 200C153.755 200 153.834 200 153.893 200C153.902 200 153.922 200 153.932 200C153.991 200 154.069 200 154.138 200C154.138 200 154.157 200 154.167 200C154.226 200 154.294 200 154.353 200C154.363 200 154.373 200 154.392 200C154.451 200 154.529 200 154.588 199.993C154.598 199.993 154.618 199.993 154.627 199.993C154.686 199.993 154.755 199.993 154.823 199.987C154.833 199.987 154.853 199.987 154.872 199.987C154.941 199.987 155 199.987 155.068 199.98C155.078 199.98 155.098 199.98 155.108 199.98C155.166 199.98 155.235 199.98 155.304 199.973C155.313 199.973 155.333 199.973 155.353 199.973C155.411 199.973 155.49 199.973 155.549 199.967C155.549 199.967 155.568 199.967 155.578 199.967C155.647 199.967 155.705 199.967 155.774 199.96C155.774 199.96 155.794 199.96 155.803 199.96C155.862 199.96 155.941 199.96 156.009 199.953C156.019 199.953 156.029 199.953 156.038 199.953C156.097 199.953 156.166 199.953 156.234 199.947C156.254 199.947 156.274 199.947 156.283 199.947C156.342 199.947 156.411 199.947 156.47 199.94C156.489 199.94 156.499 199.94 156.519 199.94C156.577 199.94 156.646 199.94 156.705 199.933C156.724 199.933 156.734 199.933 156.754 199.933C156.813 199.933 156.881 199.933 156.95 199.927C156.96 199.927 156.969 199.927 156.989 199.927C157.048 199.927 157.116 199.927 157.175 199.92C157.185 199.92 157.205 199.92 157.224 199.92C157.283 199.92 157.352 199.92 157.41 199.913C157.42 199.913 157.44 199.913 157.45 199.913C157.508 199.913 157.577 199.913 157.636 199.906C157.655 199.906 157.665 199.906 157.685 199.906C157.744 199.906 157.812 199.906 157.871 199.9C157.891 199.9 157.9 199.9 157.92 199.9C157.979 199.9 158.047 199.9 158.106 199.893C158.126 199.893 158.145 199.893 158.165 199.893C158.224 199.893 158.282 199.893 158.351 199.886C158.371 199.886 158.38 199.886 158.4 199.886C158.459 199.886 158.527 199.886 158.586 199.873C158.596 199.873 158.616 199.873 158.625 199.873C158.684 199.873 158.743 199.873 158.802 199.866C158.812 199.866 158.831 199.866 158.841 199.866C158.9 199.866 158.968 199.86 159.027 199.853C159.047 199.853 159.057 199.853 159.076 199.853C159.135 199.853 159.204 199.846 159.262 199.84C159.282 199.84 159.302 199.84 159.311 199.84C159.37 199.84 159.439 199.833 159.498 199.826C159.517 199.826 159.537 199.826 159.556 199.826C159.615 199.826 159.674 199.82 159.743 199.813C159.762 199.813 159.782 199.813 159.801 199.813C159.86 199.813 159.919 199.806 159.978 199.8C159.997 199.8 160.017 199.8 160.036 199.8C160.085 199.8 160.144 199.8 160.203 199.793C160.223 199.793 160.242 199.793 160.262 199.793C160.311 199.793 160.379 199.786 160.428 199.78C160.448 199.78 160.468 199.78 160.487 199.78C160.546 199.78 160.595 199.773 160.664 199.766C160.683 199.766 160.703 199.766 160.732 199.766C160.791 199.766 160.85 199.76 160.909 199.753C160.928 199.753 160.948 199.753 160.977 199.753C161.036 199.753 161.095 199.746 161.154 199.74C161.173 199.74 161.193 199.74 161.212 199.74C161.271 199.74 161.33 199.733 161.389 199.726C161.408 199.726 161.438 199.726 161.457 199.726C161.506 199.726 161.546 199.726 161.595 199.72C161.624 199.72 161.653 199.72 161.683 199.72C161.732 199.72 161.771 199.72 161.82 199.713C161.849 199.713 161.879 199.713 161.898 199.713C161.947 199.713 162.006 199.706 162.055 199.699C162.075 199.699 162.104 199.699 162.124 199.699C162.173 199.699 162.241 199.693 162.29 199.686C162.32 199.686 162.339 199.686 162.359 199.686C162.418 199.686 162.467 199.679 162.525 199.673C162.545 199.673 162.565 199.673 162.584 199.673C162.633 199.673 162.702 199.666 162.751 199.659C162.77 199.659 162.8 199.659 162.819 199.659C162.868 199.659 162.917 199.653 162.976 199.646C162.996 199.646 163.015 199.646 163.045 199.646C163.094 199.646 163.153 199.639 163.202 199.633C163.221 199.633 163.241 199.633 163.26 199.633C163.309 199.633 163.378 199.626 163.427 199.619C163.447 199.619 163.466 199.619 163.495 199.619C163.544 199.619 163.613 199.613 163.662 199.606C163.691 199.606 163.711 199.606 163.74 199.606C163.789 199.606 163.848 199.599 163.907 199.593C163.927 199.593 163.956 199.593 163.976 199.593C164.025 199.593 164.093 199.586 164.142 199.579C164.162 199.579 164.191 199.579 164.211 199.579C164.26 199.579 164.319 199.573 164.368 199.566C164.397 199.566 164.417 199.566 164.446 199.566C164.495 199.566 164.534 199.559 164.583 199.553C164.613 199.553 164.642 199.553 164.681 199.546C164.73 199.546 164.769 199.539 164.818 199.533C164.838 199.533 164.867 199.533 164.887 199.533C164.936 199.533 164.995 199.526 165.054 199.519C165.083 199.519 165.103 199.519 165.132 199.519C165.181 199.519 165.24 199.512 165.289 199.506C165.318 199.506 165.338 199.506 165.367 199.506C165.416 199.506 165.475 199.499 165.524 199.492C165.553 199.492 165.573 199.492 165.602 199.486C165.651 199.486 165.69 199.479 165.739 199.472C165.769 199.472 165.798 199.472 165.837 199.466C165.877 199.466 165.926 199.459 165.955 199.452C165.994 199.452 166.024 199.452 166.063 199.446C166.102 199.446 166.151 199.439 166.19 199.432C166.22 199.432 166.249 199.432 166.278 199.426C166.327 199.426 166.376 199.419 166.416 199.412C166.445 199.412 166.474 199.412 166.504 199.406C166.553 199.406 166.602 199.399 166.661 199.392C166.69 199.392 166.719 199.392 166.749 199.386C166.798 199.386 166.847 199.379 166.906 199.372C166.935 199.372 166.955 199.372 166.984 199.366C167.033 199.366 167.082 199.359 167.141 199.352C167.17 199.352 167.19 199.352 167.219 199.346C167.258 199.346 167.298 199.339 167.337 199.332C167.376 199.332 167.415 199.326 167.454 199.319C167.493 199.319 167.523 199.312 167.562 199.305C167.601 199.305 167.64 199.299 167.68 199.292C167.719 199.292 167.758 199.285 167.797 199.279C167.827 199.279 167.856 199.279 167.885 199.272C167.934 199.272 167.974 199.265 168.032 199.259C168.062 199.259 168.091 199.259 168.121 199.252C168.17 199.252 168.219 199.245 168.268 199.239C168.297 199.239 168.336 199.239 168.366 199.232C168.405 199.232 168.444 199.225 168.483 199.219C168.522 199.219 168.562 199.212 168.601 199.205C168.63 199.205 168.669 199.199 168.699 199.192C168.748 199.192 168.787 199.185 168.836 199.179C168.865 199.179 168.895 199.179 168.924 199.172C168.963 199.172 169.012 199.165 169.052 199.159C169.081 199.159 169.12 199.152 169.159 199.145C169.198 199.145 169.238 199.139 169.277 199.132C169.316 199.132 169.355 199.125 169.385 199.118C169.414 199.118 169.453 199.112 169.483 199.105C169.532 199.105 169.571 199.098 169.62 199.092C169.649 199.092 169.688 199.085 169.718 199.078C169.767 199.078 169.816 199.065 169.865 199.065C169.894 199.065 169.924 199.065 169.953 199.058C169.982 199.058 170.022 199.052 170.061 199.045C170.1 199.045 170.149 199.038 170.188 199.032C170.227 199.032 170.257 199.025 170.286 199.018C170.325 199.018 170.365 199.012 170.414 199.005C170.453 199.005 170.482 198.998 170.521 198.992C170.561 198.992 170.6 198.985 170.639 198.978C170.678 198.978 170.717 198.972 170.757 198.965C170.786 198.965 170.815 198.958 170.845 198.952C170.894 198.952 170.943 198.938 170.992 198.938C171.021 198.938 171.05 198.932 171.08 198.925C171.129 198.925 171.178 198.911 171.227 198.911C171.256 198.911 171.286 198.905 171.315 198.898C171.354 198.898 171.393 198.891 171.433 198.885C171.472 198.885 171.511 198.878 171.55 198.871C171.58 198.871 171.619 198.865 171.648 198.858C171.687 198.858 171.736 198.845 171.776 198.845C171.805 198.845 171.844 198.838 171.874 198.831C171.923 198.831 171.962 198.818 172.011 198.818C172.04 198.818 172.079 198.811 172.109 198.805C172.138 198.805 172.168 198.798 172.197 198.791C172.236 198.791 172.295 198.778 172.334 198.778C172.364 198.778 172.403 198.771 172.432 198.765C172.481 198.765 172.52 198.751 172.569 198.751C172.599 198.751 172.628 198.745 172.667 198.738C172.697 198.738 172.726 198.731 172.765 198.724C172.814 198.724 172.863 198.711 172.912 198.704C172.942 198.704 172.971 198.698 173 198.691C173.049 198.691 173.098 198.678 173.147 198.671C173.177 198.671 173.206 198.664 173.236 198.658C173.285 198.658 173.334 198.644 173.383 198.638C173.402 198.638 173.441 198.631 173.461 198.624C173.5 198.624 173.549 198.611 173.588 198.611C173.628 198.611 173.657 198.604 173.696 198.598C173.735 198.598 173.765 198.591 173.794 198.584C173.843 198.584 173.882 198.571 173.931 198.564C173.961 198.564 174 198.558 174.029 198.551C174.059 198.551 174.098 198.544 174.137 198.538C174.186 198.538 174.225 198.524 174.274 198.517C174.294 198.517 174.323 198.511 174.353 198.511C174.402 198.504 174.461 198.497 174.51 198.491C174.529 198.491 174.559 198.491 174.578 198.484C174.627 198.477 174.686 198.471 174.745 198.464C174.764 198.464 174.794 198.464 174.813 198.457C174.862 198.457 174.911 198.444 174.96 198.437C174.99 198.437 175.019 198.431 175.048 198.424C175.088 198.424 175.117 198.417 175.156 198.411C175.195 198.411 175.244 198.397 175.284 198.391C175.323 198.391 175.352 198.384 175.391 198.377C175.411 198.377 175.431 198.377 175.46 198.371C175.519 198.364 175.568 198.357 175.627 198.351C175.646 198.351 175.666 198.351 175.685 198.344C175.744 198.337 175.803 198.33 175.862 198.317C175.881 198.317 175.901 198.317 175.921 198.31C175.979 198.304 176.038 198.297 176.107 198.284C176.117 198.284 176.146 198.284 176.156 198.277C176.224 198.27 176.283 198.257 176.352 198.25C176.362 198.25 176.371 198.25 176.391 198.25C176.46 198.244 176.528 198.23 176.597 198.224C176.606 198.224 176.616 198.224 176.636 198.224C176.675 198.224 176.714 198.21 176.753 198.21C176.783 198.21 176.812 198.204 176.832 198.197C176.881 198.19 176.93 198.184 176.979 198.177C177.008 198.177 177.028 198.17 177.057 198.164C177.106 198.157 177.155 198.15 177.214 198.144C177.234 198.144 177.263 198.137 177.283 198.13C177.341 198.123 177.39 198.117 177.449 198.103C177.469 198.103 177.488 198.103 177.518 198.097C177.577 198.09 177.635 198.083 177.684 198.07C177.704 198.07 177.733 198.07 177.743 198.063C177.792 198.057 177.851 198.05 177.9 198.043C177.929 198.043 177.949 198.037 177.978 198.03C178.018 198.03 178.047 198.017 178.086 198.017C178.116 198.017 178.145 198.01 178.174 198.003C178.223 197.997 178.272 197.99 178.321 197.983C178.351 197.983 178.37 197.977 178.4 197.97C178.449 197.963 178.498 197.957 178.547 197.95C178.566 197.95 178.596 197.943 178.625 197.936C178.674 197.93 178.723 197.923 178.782 197.916C178.811 197.916 178.831 197.91 178.86 197.903C178.909 197.896 178.958 197.89 179.007 197.883C179.027 197.883 179.066 197.876 179.086 197.87C179.144 197.863 179.193 197.856 179.252 197.843C179.272 197.843 179.291 197.836 179.321 197.83C179.36 197.83 179.389 197.816 179.429 197.816C179.468 197.816 179.507 197.803 179.556 197.796C179.595 197.796 179.634 197.783 179.664 197.776C179.683 197.776 179.703 197.776 179.723 197.77C179.781 197.763 179.84 197.749 179.889 197.743C179.909 197.743 179.928 197.736 179.948 197.736C180.007 197.729 180.066 197.716 180.124 197.709C180.144 197.709 180.164 197.709 180.183 197.703C180.242 197.696 180.301 197.683 180.35 197.676C180.369 197.676 180.389 197.676 180.409 197.663C180.467 197.656 180.526 197.643 180.575 197.636C180.595 197.636 180.614 197.629 180.634 197.629C180.683 197.623 180.732 197.616 180.781 197.603C180.81 197.603 180.83 197.596 180.859 197.589C180.898 197.589 180.938 197.576 180.967 197.569C180.977 197.569 180.996 197.569 181.006 197.563C181.065 197.549 181.134 197.542 181.192 197.529C181.212 197.529 181.222 197.529 181.241 197.522C181.3 197.509 181.359 197.502 181.428 197.496C181.437 197.496 181.457 197.496 181.477 197.489C181.535 197.476 181.604 197.469 181.663 197.456C181.673 197.456 181.692 197.456 181.712 197.449C181.78 197.436 181.839 197.429 181.908 197.416C181.918 197.416 181.927 197.416 181.937 197.416C182.006 197.402 182.074 197.396 182.143 197.382C182.143 197.382 182.163 197.382 182.172 197.382C182.212 197.382 182.251 197.369 182.29 197.362C182.29 197.362 182.29 197.362 182.3 197.362C182.378 197.349 182.447 197.335 182.525 197.322C182.535 197.322 182.545 197.322 182.564 197.322C182.623 197.309 182.692 197.302 182.75 197.289C182.77 197.289 182.79 197.289 182.809 197.275C182.868 197.269 182.927 197.255 182.986 197.249C183.005 197.249 183.025 197.249 183.035 197.242C183.093 197.229 183.162 197.222 183.221 197.209C183.24 197.209 183.25 197.209 183.27 197.202C183.338 197.189 183.407 197.175 183.476 197.169L183.495 197.169C183.613 197.148 183.73 197.128 183.848 197.108L183.868 197.108C183.936 197.095 184.005 197.082 184.073 197.068C184.073 197.068 184.103 197.068 184.113 197.062C184.181 197.048 184.24 197.042 184.308 197.028C184.318 197.028 184.338 197.028 184.348 197.022C184.406 197.008 184.475 197.002 184.534 196.988C184.544 196.988 184.563 196.988 184.583 196.982C184.642 196.968 184.71 196.961 184.769 196.948C184.779 196.948 184.798 196.948 184.818 196.941C184.936 196.921 185.043 196.901 185.161 196.881C185.171 196.881 185.19 196.881 185.2 196.875C185.269 196.861 185.328 196.848 185.396 196.841C185.406 196.841 185.426 196.841 185.435 196.835C185.494 196.821 185.553 196.815 185.622 196.801C185.641 196.801 185.661 196.795 185.68 196.788C185.739 196.775 185.798 196.768 185.857 196.754C185.867 196.754 185.886 196.754 185.906 196.748C185.965 196.734 186.023 196.728 186.082 196.714C186.102 196.714 186.111 196.714 186.131 196.708C186.19 196.694 186.258 196.681 186.317 196.674C186.327 196.674 186.347 196.674 186.356 196.668C186.396 196.661 186.435 196.654 186.464 196.648C186.474 196.648 186.484 196.648 186.503 196.648C186.572 196.634 186.631 196.621 186.699 196.608C186.719 196.608 186.739 196.608 186.748 196.594C186.807 196.581 186.866 196.574 186.925 196.561C186.935 196.561 186.954 196.561 186.964 196.554C187.023 196.541 187.091 196.527 187.15 196.521C187.17 196.521 187.18 196.521 187.199 196.514C187.258 196.501 187.317 196.494 187.376 196.481C187.395 196.481 187.405 196.481 187.425 196.474C187.483 196.461 187.552 196.447 187.611 196.441C187.621 196.441 187.64 196.441 187.65 196.434C187.768 196.414 187.875 196.387 187.993 196.367C188.003 196.367 188.022 196.367 188.042 196.36C188.101 196.347 188.169 196.334 188.228 196.327C188.248 196.327 188.257 196.327 188.267 196.32C188.326 196.307 188.385 196.294 188.444 196.287C188.463 196.287 188.483 196.28 188.502 196.274C188.561 196.26 188.62 196.254 188.669 196.24C188.689 196.24 188.698 196.24 188.718 196.227C188.777 196.214 188.845 196.2 188.904 196.187C188.914 196.187 188.934 196.187 188.953 196.18C189.022 196.167 189.09 196.153 189.159 196.14L189.179 196.14C189.218 196.133 189.257 196.127 189.286 196.12C189.306 196.12 189.316 196.12 189.335 196.107C189.394 196.093 189.453 196.08 189.512 196.073C189.531 196.073 189.541 196.073 189.561 196.067C189.62 196.053 189.678 196.04 189.737 196.027C189.757 196.027 189.767 196.02 189.786 196.013C189.845 196 189.904 195.987 189.962 195.98C189.982 195.98 190.002 195.973 190.021 195.966C190.08 195.953 190.139 195.94 190.198 195.933C190.217 195.933 190.237 195.926 190.256 195.92C190.315 195.906 190.384 195.893 190.443 195.88C190.452 195.88 190.462 195.88 190.482 195.873C190.521 195.866 190.56 195.86 190.599 195.846C190.619 195.846 190.629 195.846 190.648 195.833C190.707 195.82 190.766 195.806 190.825 195.793C190.844 195.793 190.874 195.779 190.893 195.779C190.942 195.766 191.001 195.759 191.05 195.746C191.08 195.746 191.099 195.733 191.129 195.733C191.178 195.719 191.227 195.713 191.276 195.699C191.305 195.699 191.325 195.686 191.354 195.679C191.403 195.666 191.452 195.659 191.501 195.646C191.53 195.646 191.55 195.633 191.579 195.626C191.619 195.619 191.658 195.606 191.697 195.599C191.726 195.592 191.765 195.586 191.805 195.579C191.834 195.572 191.873 195.566 191.903 195.559C191.952 195.552 191.991 195.539 192.03 195.532C192.059 195.526 192.089 195.519 192.128 195.512C192.157 195.506 192.187 195.499 192.216 195.492C192.265 195.486 192.304 195.472 192.344 195.466C192.373 195.466 192.393 195.452 192.422 195.446C192.471 195.432 192.51 195.426 192.559 195.412C192.589 195.412 192.618 195.399 192.638 195.392C192.687 195.385 192.726 195.372 192.775 195.365C192.804 195.359 192.834 195.352 192.863 195.345C192.902 195.339 192.941 195.325 192.981 195.319C193.01 195.312 193.049 195.305 193.079 195.299C193.108 195.292 193.137 195.285 193.167 195.279C193.216 195.265 193.255 195.259 193.304 195.245C193.333 195.245 193.363 195.232 193.392 195.225C193.441 195.212 193.48 195.205 193.52 195.198C193.549 195.198 193.578 195.185 193.608 195.178C193.647 195.172 193.676 195.165 193.715 195.152C193.755 195.145 193.794 195.132 193.833 195.125C193.872 195.118 193.892 195.112 193.931 195.105C193.97 195.098 194.009 195.085 194.049 195.078C194.088 195.072 194.117 195.065 194.156 195.052C194.186 195.045 194.215 195.038 194.245 195.032C194.294 195.018 194.323 195.012 194.372 195.005C194.401 195.005 194.421 194.991 194.45 194.985C194.499 194.971 194.548 194.965 194.597 194.951C194.627 194.951 194.646 194.938 194.676 194.931C194.725 194.918 194.774 194.911 194.823 194.898C194.852 194.898 194.872 194.885 194.901 194.878C194.95 194.865 194.989 194.858 195.038 194.845C195.068 194.845 195.097 194.831 195.117 194.825C195.156 194.818 195.195 194.804 195.225 194.798C195.264 194.791 195.293 194.784 195.332 194.771C195.372 194.764 195.411 194.751 195.44 194.744C195.469 194.738 195.499 194.731 195.528 194.724C195.567 194.718 195.616 194.704 195.656 194.698C195.685 194.698 195.705 194.684 195.734 194.678C195.783 194.664 195.822 194.658 195.871 194.644C195.901 194.644 195.92 194.631 195.95 194.624C195.999 194.611 196.048 194.604 196.097 194.591C196.126 194.591 196.146 194.577 196.175 194.571C196.224 194.557 196.263 194.551 196.312 194.537C196.342 194.537 196.361 194.524 196.391 194.517C196.43 194.511 196.469 194.497 196.508 194.491C196.538 194.484 196.577 194.477 196.606 194.464C196.645 194.457 196.685 194.444 196.724 194.437C196.753 194.437 196.783 194.424 196.802 194.417C196.841 194.404 196.89 194.397 196.939 194.384C196.959 194.384 196.979 194.37 197.008 194.37C197.057 194.357 197.106 194.344 197.155 194.337C197.175 194.337 197.204 194.324 197.224 194.317C197.272 194.304 197.322 194.29 197.37 194.284C197.4 194.284 197.419 194.27 197.449 194.264C197.498 194.25 197.547 194.237 197.596 194.23C197.615 194.23 197.635 194.217 197.655 194.217C197.704 194.203 197.753 194.19 197.802 194.177C197.821 194.177 197.841 194.163 197.86 194.163C197.9 194.15 197.958 194.137 197.998 194.13C198.017 194.13 198.037 194.117 198.056 194.117C198.105 194.103 198.154 194.09 198.203 194.077C198.223 194.077 198.243 194.07 198.262 194.063C198.311 194.05 198.37 194.037 198.419 194.023C198.439 194.023 198.458 194.01 198.478 194.01C198.527 193.996 198.586 193.983 198.635 193.97C198.654 193.97 198.674 193.963 198.693 193.956C198.742 193.943 198.801 193.93 198.85 193.916C198.87 193.916 198.889 193.91 198.909 193.903C198.958 193.89 199.017 193.876 199.066 193.863C199.085 193.863 199.105 193.856 199.115 193.85C199.164 193.836 199.213 193.823 199.262 193.809C199.281 193.809 199.301 193.803 199.32 193.796C199.369 193.783 199.418 193.769 199.467 193.756C199.487 193.756 199.497 193.749 199.516 193.743C199.575 193.729 199.624 193.716 199.683 193.696C199.703 193.696 199.712 193.689 199.732 193.683C199.791 193.669 199.84 193.656 199.889 193.643C199.908 193.643 199.928 193.636 199.948 193.629C200.006 193.616 200.055 193.602 200.114 193.589C200.134 193.589 200.144 193.582 200.163 193.576C200.222 193.562 200.271 193.549 200.33 193.529C200.349 193.529 200.359 193.522 200.379 193.516C200.438 193.502 200.487 193.489 200.545 193.469C200.545 193.469 200.565 193.469 200.575 193.462C200.634 193.449 200.673 193.435 200.732 193.422C200.751 193.422 200.761 193.415 200.781 193.409C200.839 193.395 200.888 193.375 200.947 193.362C200.957 193.362 200.977 193.355 200.986 193.349C201.045 193.335 201.104 193.315 201.153 193.302C201.163 193.302 201.182 193.295 201.192 193.289C201.251 193.275 201.31 193.255 201.368 193.242C201.378 193.242 201.388 193.242 201.398 193.235C201.457 193.222 201.515 193.202 201.574 193.188C201.584 193.188 201.594 193.188 201.604 193.182C201.662 193.168 201.721 193.148 201.79 193.135C201.79 193.135 201.8 193.135 201.809 193.135C201.868 193.122 201.927 193.102 201.996 193.088C201.996 193.088 202.005 193.088 202.015 193.088C202.084 193.068 202.133 193.055 202.201 193.035C202.201 193.035 202.221 193.035 202.231 193.028C202.29 193.008 202.348 192.995 202.407 192.981C202.417 192.981 202.427 192.981 202.446 192.975C202.505 192.955 202.564 192.941 202.623 192.928C202.623 192.928 202.642 192.928 202.652 192.921C202.711 192.901 202.78 192.888 202.838 192.868L202.858 192.868C202.926 192.848 202.985 192.834 203.044 192.814C203.044 192.814 203.044 192.814 203.054 192.814C203.181 192.781 203.318 192.741 203.446 192.701L203.456 192.701C203.524 192.681 203.583 192.668 203.642 192.647C203.642 192.647 203.661 192.647 203.661 192.641C203.72 192.621 203.779 192.607 203.848 192.587C203.848 192.587 203.867 192.587 203.877 192.581C203.936 192.561 203.995 192.547 204.053 192.527C204.053 192.527 204.073 192.527 204.083 192.521C204.151 192.501 204.2 192.487 204.269 192.467L204.279 192.467C204.485 192.407 204.681 192.354 204.876 192.294C204.945 192.274 205.014 192.253 205.082 192.233C205.151 192.213 205.219 192.193 205.288 192.173C206.386 191.846 207.483 191.512 208.561 191.172L147.592 101.499C147.513 101.526 147.357 101.573 146.837 101.573L146.837 200L146.818 200ZM261.955 162.109C270.01 155.197 276.762 147.551 281.935 139.33C281.935 139.33 281.935 139.324 281.935 139.317C281.965 139.27 281.994 139.223 282.024 139.183C282.024 139.177 282.024 139.17 282.033 139.163C282.063 139.123 282.082 139.076 282.112 139.036C282.112 139.03 282.112 139.023 282.122 139.016C282.2 138.889 282.278 138.769 282.357 138.642C282.357 138.636 282.367 138.622 282.376 138.616C282.406 138.576 282.425 138.536 282.455 138.495C282.455 138.489 282.465 138.469 282.474 138.462C282.494 138.422 282.523 138.389 282.543 138.349C282.543 138.335 282.563 138.322 282.563 138.308C282.592 138.262 282.621 138.208 282.651 138.162C282.651 138.162 282.68 138.115 282.69 138.088C282.7 138.068 282.71 138.048 282.729 138.035C282.749 138.008 282.768 137.975 282.778 137.948C282.788 137.928 282.798 137.908 282.817 137.888C282.837 137.861 282.847 137.834 282.866 137.808C282.876 137.781 282.896 137.768 282.906 137.741C282.925 137.714 282.935 137.694 282.945 137.667C282.964 137.641 282.974 137.621 282.994 137.594C283.004 137.574 283.013 137.554 283.023 137.54C283.043 137.514 283.062 137.48 283.082 137.447C283.092 137.427 283.102 137.407 283.111 137.394C283.131 137.367 283.151 137.327 283.17 137.3C283.17 137.287 283.19 137.267 283.2 137.253C283.209 137.227 283.229 137.2 283.249 137.18C283.258 137.16 283.278 137.133 283.288 137.113C283.298 137.086 283.317 137.06 283.337 137.033C283.337 137.02 283.356 137 283.366 136.986C283.386 136.953 283.405 136.919 283.425 136.886C283.425 136.873 283.445 136.853 283.454 136.839C283.474 136.806 283.494 136.773 283.513 136.739C283.513 136.726 283.533 136.706 283.542 136.692C283.562 136.659 283.582 136.626 283.601 136.592C283.601 136.579 283.621 136.565 283.621 136.552C283.64 136.519 283.66 136.485 283.68 136.452C283.68 136.439 283.689 136.432 283.699 136.419C283.719 136.385 283.738 136.345 283.758 136.318C283.758 136.305 283.778 136.292 283.778 136.278C283.797 136.245 283.817 136.205 283.836 136.171C283.836 136.158 283.846 136.151 283.856 136.138C283.876 136.105 283.895 136.065 283.915 136.025C283.915 136.011 283.925 135.998 283.934 135.991C283.954 135.951 283.974 135.911 284.003 135.878C284.003 135.878 284.003 135.864 284.013 135.858C284.032 135.824 284.062 135.777 284.081 135.744C284.081 135.744 284.081 135.731 284.091 135.724C284.111 135.684 284.14 135.637 284.16 135.597C284.16 135.591 284.16 135.584 284.17 135.577C284.189 135.537 284.219 135.497 284.238 135.457C284.238 135.45 284.238 135.437 284.248 135.43C284.268 135.39 284.297 135.35 284.317 135.303L284.317 135.29C284.346 135.243 284.366 135.203 284.385 135.156C284.415 135.11 284.434 135.063 284.464 135.016C284.493 134.969 284.513 134.923 284.542 134.883C284.542 134.883 284.542 134.883 284.542 134.876C284.571 134.829 284.591 134.789 284.62 134.742C284.62 134.742 284.62 134.742 284.62 134.736C284.64 134.689 284.669 134.642 284.699 134.595C286.659 130.976 288.324 127.256 289.677 123.457L148.699 100.27C148.65 100.417 148.484 100.571 148.386 100.658L261.955 162.109ZM148.738 99.4424L290 77.0844C290 77.0644 289.98 77.0376 289.98 77.0176C289.98 76.9976 289.971 76.9842 289.961 76.9642C289.951 76.9241 289.931 76.8907 289.922 76.8507C289.922 76.8373 289.912 76.8173 289.902 76.8039C289.892 76.7638 289.873 76.7238 289.863 76.6837C289.863 76.6703 289.863 76.657 289.853 76.6436C289.833 76.5969 289.824 76.5568 289.804 76.5101C289.804 76.5034 289.804 76.49 289.794 76.4834C289.794 76.4566 289.775 76.4299 289.765 76.4099C289.765 76.3965 289.765 76.3899 289.755 76.3765C289.735 76.3365 289.726 76.2897 289.706 76.2496C289.706 76.243 289.706 76.2363 289.706 76.2296C289.686 76.1829 289.677 76.1361 289.657 76.0894C289.657 76.0894 289.657 76.076 289.657 76.0693C289.637 76.0159 289.618 75.9692 289.598 75.9157C289.598 75.9157 289.598 75.9157 289.598 75.909C289.549 75.7688 289.5 75.6286 289.451 75.495C289.432 75.4416 289.412 75.3815 289.392 75.3281C284.581 62.2926 276.027 50.2788 264.552 39.8344C264.435 39.7209 264.307 39.614 264.19 39.5005C264.19 39.5005 264.19 39.5005 264.18 39.4871C264.141 39.4471 264.092 39.407 264.052 39.3736C264.052 39.3669 264.033 39.3536 264.023 39.3469C263.984 39.3135 263.954 39.2801 263.915 39.2467C263.905 39.2334 263.896 39.2267 263.876 39.2133C263.837 39.18 263.807 39.1466 263.768 39.1132C263.758 39.1065 263.749 39.0931 263.739 39.0865C263.719 39.0664 263.7 39.0464 263.67 39.0264C263.651 39.0063 263.621 38.9863 263.602 38.9663C263.582 38.9462 263.553 38.9262 263.533 38.9062C263.513 38.8861 263.494 38.8728 263.474 38.8594C263.445 38.8327 263.425 38.8127 263.396 38.7859C263.376 38.7659 263.357 38.7525 263.337 38.7325C263.317 38.7125 263.288 38.6925 263.268 38.6724C263.249 38.6524 263.219 38.6324 263.2 38.6123C263.18 38.599 263.17 38.5856 263.151 38.5722C263.121 38.5455 263.092 38.5188 263.063 38.4921C263.043 38.4788 263.033 38.4654 263.014 38.4454C262.984 38.4187 262.955 38.392 262.926 38.3652C262.906 38.3519 262.896 38.3385 262.877 38.3252C262.847 38.2984 262.808 38.2651 262.779 38.2384L148.474 99.0684C148.582 99.1619 148.728 99.3088 148.777 99.4491L148.738 99.4424ZM147.592 98.5809L209.698 9.26911C203.799 7.36588 197.694 5.72308 191.403 4.35409C191.187 4.30733 190.982 4.26058 190.766 4.21384C190.697 4.20048 190.629 4.18713 190.56 4.17377C190.56 4.17377 190.55 4.17377 190.541 4.17377C190.482 4.16041 190.413 4.14707 190.345 4.13372L190.325 4.13372C190.266 4.12035 190.188 4.107 190.129 4.09365C190.129 4.09365 190.119 4.09365 190.109 4.09365C190.041 4.08028 189.982 4.06692 189.914 4.05356C189.914 4.05356 189.914 4.05356 189.904 4.05356C189.835 4.0402 189.767 4.02685 189.698 4.0135C189.561 3.98678 189.424 3.95341 189.277 3.92669C189.277 3.92669 189.267 3.92669 189.257 3.92669C189.188 3.91334 189.13 3.89997 189.061 3.8866C189.061 3.8866 189.041 3.8866 189.032 3.8866C188.973 3.87325 188.904 3.8599 188.845 3.84653C188.836 3.84653 188.826 3.84653 188.816 3.84653C188.757 3.83318 188.689 3.81983 188.63 3.80646C188.63 3.80646 188.61 3.80646 188.6 3.80646C188.542 3.79311 188.473 3.77976 188.404 3.76639L188.385 3.76639C188.316 3.75304 188.257 3.73969 188.189 3.72632C188.12 3.71297 188.061 3.69964 187.993 3.68629C187.993 3.68629 187.973 3.68629 187.964 3.68629C187.905 3.67292 187.836 3.65957 187.768 3.64622L187.748 3.64622C187.689 3.63285 187.621 3.6195 187.562 3.60615C187.552 3.60615 187.532 3.60613 187.523 3.59945C187.464 3.5861 187.395 3.57274 187.336 3.56608C187.327 3.56608 187.317 3.56608 187.307 3.56608C187.248 3.55271 187.18 3.53936 187.121 3.53268C187.111 3.53268 187.091 3.53268 187.082 3.52601C187.023 3.51264 186.954 3.49929 186.895 3.48594C186.837 3.47257 186.768 3.45922 186.709 3.45254C186.699 3.45254 186.69 3.45254 186.68 3.45254C186.621 3.43918 186.552 3.42583 186.494 3.41915C186.484 3.41915 186.464 3.41915 186.454 3.41247C186.396 3.39912 186.337 3.39245 186.278 3.37908C186.259 3.37908 186.249 3.3791 186.229 3.37241C186.17 3.35906 186.112 3.35238 186.053 3.33901C186.043 3.33901 186.023 3.33903 186.014 3.33234C185.955 3.31899 185.886 3.31232 185.827 3.29897C185.818 3.29897 185.798 3.29896 185.788 3.29227C185.729 3.27892 185.671 3.27225 185.612 3.2589C185.602 3.2589 185.582 3.25889 185.573 3.2522C185.514 3.23885 185.465 3.23217 185.406 3.2188C185.396 3.2188 185.377 3.21882 185.367 3.21213C185.308 3.19878 185.249 3.1921 185.19 3.17873C185.181 3.17873 185.161 3.17875 185.151 3.17206C185.092 3.15871 185.034 3.15203 184.975 3.13866C184.955 3.13866 184.945 3.13869 184.926 3.13201C184.867 3.12534 184.808 3.11196 184.749 3.09859C184.73 3.09859 184.71 3.09862 184.7 3.09194C184.642 3.07859 184.583 3.07189 184.524 3.05852C184.504 3.05852 184.495 3.05854 184.475 3.05186C184.416 3.0385 184.357 3.03184 184.299 3.01848C184.289 3.01848 184.279 3.01848 184.269 3.01848C184.211 3.00512 184.152 2.99843 184.093 2.98508C184.083 2.98508 184.073 2.98508 184.064 2.98508C183.995 2.97173 183.946 2.96503 183.887 2.95168C183.868 2.95168 183.858 2.95171 183.838 2.94503C183.779 2.93835 183.73 2.92498 183.672 2.91831C183.652 2.91831 183.632 2.91163 183.613 2.90494C183.554 2.89826 183.505 2.88491 183.446 2.87824C183.427 2.87824 183.407 2.87823 183.387 2.87154C183.329 2.85819 183.28 2.85152 183.221 2.84484C183.201 2.84484 183.191 2.84484 183.172 2.83817C183.113 2.8248 183.054 2.81812 182.995 2.80477C182.976 2.80477 182.966 2.80477 182.946 2.7981C182.888 2.79142 182.848 2.77807 182.79 2.77138C182.77 2.77138 182.75 2.77138 182.731 2.7647C182.672 2.75802 182.623 2.74467 182.564 2.738C182.545 2.738 182.525 2.738 182.515 2.73131C182.456 2.71796 182.408 2.71128 182.349 2.7046C182.329 2.7046 182.31 2.7046 182.29 2.69793C182.231 2.69124 182.172 2.67789 182.123 2.67121C182.104 2.67121 182.084 2.67122 182.065 2.66454C182.006 2.65786 181.957 2.64449 181.898 2.63782C181.878 2.63782 181.859 2.63116 181.839 2.62447C181.78 2.61779 181.731 2.60442 181.673 2.59775C181.653 2.59775 181.633 2.59777 181.624 2.5911C181.575 2.58442 181.516 2.57105 181.467 2.56437C181.447 2.56437 181.428 2.56435 181.408 2.55768C181.349 2.551 181.3 2.53765 181.241 2.53097C181.232 2.53097 181.212 2.53097 181.202 2.53097C181.143 2.5243 181.085 2.51095 181.026 2.50426C181.006 2.50426 180.987 2.50428 180.967 2.49759C180.908 2.49091 180.849 2.47754 180.8 2.47086C180.781 2.47086 180.761 2.47088 180.751 2.46419C180.693 2.45753 180.634 2.44417 180.575 2.43749C180.556 2.43749 180.536 2.43748 180.516 2.43079C180.458 2.42412 180.399 2.41077 180.34 2.40409C180.32 2.40409 180.311 2.4041 180.301 2.39742C180.242 2.39074 180.193 2.37737 180.134 2.37069C180.115 2.37069 180.095 2.3707 180.075 2.36402C180.026 2.35735 179.977 2.35067 179.919 2.33732C179.899 2.33732 179.879 2.33732 179.87 2.33065C179.811 2.32396 179.752 2.3106 179.703 2.30391C179.683 2.30391 179.664 2.30393 179.644 2.29725C179.585 2.29056 179.536 2.27721 179.478 2.27054C179.458 2.27054 179.438 2.27053 179.419 2.26385C179.36 2.25718 179.311 2.24383 179.252 2.23714C179.233 2.23714 179.213 2.23714 179.193 2.23047C179.135 2.22379 179.076 2.21042 179.027 2.20374C179.007 2.20374 178.988 2.20376 178.978 2.19707C178.919 2.19039 178.87 2.17704 178.811 2.17037C178.792 2.17037 178.772 2.17037 178.762 2.16369C178.704 2.15702 178.664 2.15032 178.606 2.13697C178.586 2.13697 178.566 2.13697 178.557 2.1303C178.498 2.12362 178.439 2.11027 178.39 2.10358C178.37 2.10358 178.351 2.10358 178.331 2.0969C178.272 2.09022 178.223 2.08353 178.165 2.07018C178.145 2.07018 178.125 2.0702 178.106 2.06351C178.047 2.05684 177.998 2.05015 177.939 2.03679C177.92 2.03679 177.9 2.03679 177.871 2.03013C177.812 2.02344 177.763 2.01677 177.704 2.00341C177.684 2.00341 177.665 2.00342 177.645 1.99674C177.596 1.99006 177.547 1.98339 177.488 1.97671C177.459 1.97671 177.439 1.97002 177.42 1.96334C177.371 1.95667 177.322 1.94999 177.273 1.9433C177.253 1.9433 177.234 1.94332 177.214 1.93664C177.165 1.92997 177.106 1.92328 177.057 1.9166C177.038 1.9166 177.018 1.91659 176.998 1.90992C176.949 1.90323 176.881 1.89657 176.832 1.8832C176.812 1.8832 176.783 1.88321 176.763 1.87653C176.714 1.86986 176.656 1.86318 176.607 1.8565C176.577 1.8565 176.558 1.84981 176.528 1.84313C176.479 1.83646 176.42 1.82978 176.371 1.82309C176.352 1.82309 176.332 1.82311 176.313 1.81643C176.264 1.80976 176.205 1.80308 176.156 1.79639C176.126 1.79639 176.107 1.78971 176.077 1.78303C176.028 1.78303 175.979 1.76967 175.94 1.76301C175.921 1.76301 175.891 1.76302 175.872 1.75634C175.823 1.74967 175.774 1.74296 175.725 1.73627C175.705 1.73627 175.685 1.7363 175.656 1.72962C175.597 1.72294 175.548 1.71627 175.489 1.70958C175.47 1.70958 175.45 1.70957 175.421 1.7029C175.362 1.69622 175.313 1.68953 175.254 1.68287C175.235 1.68287 175.205 1.68287 175.186 1.67618C175.127 1.66952 175.078 1.66283 175.019 1.65615C174.999 1.65615 174.98 1.65616 174.96 1.64948C174.911 1.6428 174.843 1.63613 174.794 1.62945C174.774 1.62945 174.755 1.62945 174.725 1.62278C174.676 1.61609 174.627 1.60941 174.578 1.60274C174.559 1.60274 174.529 1.60273 174.51 1.59604C174.461 1.58938 174.402 1.58269 174.353 1.57601C174.333 1.57601 174.314 1.57599 174.294 1.56933C174.235 1.56264 174.186 1.55599 174.118 1.54931C174.098 1.54931 174.078 1.54931 174.059 1.54264C174 1.53595 173.941 1.52927 173.892 1.5226C173.873 1.5226 173.853 1.52259 173.833 1.5159C173.775 1.50924 173.716 1.50255 173.667 1.49587C173.647 1.49587 173.628 1.49589 173.608 1.4892C173.549 1.48252 173.5 1.47585 173.432 1.46917C173.412 1.46917 173.392 1.46917 173.383 1.46917C173.324 1.46248 173.275 1.45582 173.216 1.44913C173.196 1.44913 173.177 1.44913 173.157 1.44246C173.108 1.44246 173.05 1.4291 173.001 1.42243C172.981 1.42243 172.971 1.42243 172.952 1.42243C172.893 1.41575 172.834 1.40905 172.775 1.40238C172.756 1.40238 172.746 1.40238 172.726 1.40238C172.667 1.3957 172.609 1.38901 172.54 1.38234C172.52 1.38234 172.511 1.38234 172.491 1.38234C172.432 1.37566 172.373 1.36899 172.305 1.36232C172.285 1.36232 172.275 1.36232 172.256 1.36232C172.197 1.35564 172.138 1.34896 172.07 1.34229C172.05 1.34229 172.04 1.34229 172.021 1.34229C171.962 1.33561 171.903 1.32892 171.844 1.32226C171.834 1.32226 171.815 1.32226 171.805 1.32226C171.746 1.32226 171.687 1.30889 171.629 1.30222C171.619 1.30222 171.599 1.30222 171.589 1.30222C171.531 1.29554 171.462 1.28885 171.403 1.28219C171.384 1.28219 171.374 1.28219 171.354 1.28219C171.295 1.2755 171.237 1.26882 171.178 1.26215C171.158 1.26215 171.139 1.26215 171.119 1.25547C171.06 1.25547 171.002 1.2421 170.943 1.23542C170.923 1.23542 170.913 1.23542 170.894 1.23542C170.835 1.22875 170.776 1.22207 170.708 1.21538C170.688 1.21538 170.678 1.21538 170.659 1.21538C170.6 1.20871 170.531 1.20205 170.472 1.19538C170.463 1.19538 170.453 1.19538 170.443 1.19538C170.384 1.19538 170.325 1.18201 170.267 1.17534C170.247 1.17534 170.227 1.17534 170.218 1.17534C170.159 1.17534 170.1 1.16198 170.041 1.15531C170.031 1.15531 170.012 1.15531 170.002 1.15531C169.943 1.15531 169.884 1.14194 169.816 1.13527C169.796 1.13527 169.777 1.13527 169.757 1.13527C169.698 1.13527 169.63 1.12191 169.581 1.11524C169.561 1.11524 169.551 1.11524 169.532 1.11524C169.473 1.11524 169.414 1.10187 169.346 1.0952C169.326 1.0952 169.316 1.0952 169.297 1.0952C169.238 1.0952 169.169 1.08184 169.11 1.07517C169.101 1.07517 169.091 1.07517 169.071 1.07517C169.012 1.07517 168.944 1.0618 168.885 1.05513C168.885 1.05513 168.865 1.05513 168.856 1.05513C168.797 1.05513 168.718 1.04177 168.66 1.0351C168.65 1.0351 168.64 1.0351 168.63 1.0351C168.571 1.0351 168.503 1.02173 168.434 1.01507C168.424 1.01507 168.405 1.01507 168.395 1.01507C168.336 1.01507 168.268 1.0017 168.209 0.99503C168.189 0.99503 168.179 0.99503 168.16 0.99503C168.101 0.99503 168.032 0.981664 167.974 0.974995C167.954 0.974995 167.944 0.974995 167.925 0.974995C167.866 0.974995 167.797 0.961644 167.738 0.954976C167.729 0.954976 167.709 0.954976 167.699 0.954976C167.64 0.954976 167.572 0.941609 167.503 0.934941L167.484 0.934941C167.425 0.934941 167.347 0.921574 167.288 0.914906C167.278 0.914906 167.268 0.914906 167.258 0.914906C167.2 0.914906 167.121 0.90154 167.062 0.894871C167.053 0.894871 167.043 0.894871 167.023 0.894871C166.964 0.894871 166.896 0.881505 166.827 0.874837C166.817 0.874837 166.798 0.874837 166.788 0.874837C166.719 0.874837 166.661 0.86147 166.592 0.854802C166.582 0.854802 166.563 0.854802 166.553 0.854802C166.484 0.854802 166.425 0.841435 166.357 0.834767C166.357 0.834767 166.337 0.834767 166.327 0.834767C166.259 0.834767 166.19 0.8214 166.122 0.814732C166.122 0.814732 166.112 0.814732 166.102 0.814732C166.033 0.814732 165.965 0.801365 165.896 0.794697C165.896 0.794697 165.886 0.794697 165.877 0.794697C165.808 0.794697 165.739 0.781331 165.671 0.774663L165.632 0.774663C165.563 0.767979 165.495 0.761296 165.426 0.754628C165.426 0.754628 165.406 0.754628 165.397 0.754628C165.328 0.754628 165.259 0.741246 165.191 0.734578C165.191 0.734578 165.171 0.734578 165.161 0.734578C165.093 0.734578 165.024 0.721211 164.956 0.714543C164.956 0.714543 164.956 0.714543 164.946 0.714543C164.877 0.714543 164.799 0.701176 164.72 0.694508C164.573 0.681141 164.417 0.667805 164.27 0.661122L164.26 0.661122C164.191 0.661122 164.113 0.64777 164.044 0.641087C164.044 0.641087 164.044 0.641087 164.034 0.641087C163.966 0.641087 163.897 0.627751 163.819 0.627751C163.819 0.627751 163.799 0.627751 163.789 0.627751C163.721 0.627751 163.652 0.614384 163.574 0.614384C163.574 0.614384 163.574 0.614384 163.564 0.614384C163.486 0.614384 163.417 0.601017 163.339 0.594349C163.192 0.580998 163.035 0.57433 162.888 0.560963C162.888 0.560963 162.888 0.560963 162.878 0.560963C162.8 0.560963 162.731 0.547581 162.663 0.547581C162.663 0.547581 162.663 0.547581 162.653 0.547581C162.574 0.547581 162.506 0.534245 162.427 0.534245C162.427 0.534245 162.427 0.534245 162.418 0.534245C162.339 0.534245 162.271 0.520893 162.192 0.520893C162.114 0.520893 162.045 0.507542 161.967 0.507542C161.732 0.494175 161.506 0.474156 161.271 0.460789C161.193 0.460789 161.124 0.454106 161.046 0.447437C160.967 0.447437 160.899 0.440769 160.82 0.434086C156.675 0.166965 152.462 0.020038 148.219 1.81227e-05L146.994 98.828C147.484 98.828 147.631 98.8814 147.719 98.9081L147.592 98.5809ZM145.24 99.0417C145.475 98.848 145.769 98.6744 146.044 98.5876L81.8212 9.97029C69.3374 14.1708 57.8432 19.5532 47.6719 25.8907C47.6229 25.9241 47.5739 25.9575 47.5151 25.9842C47.5151 25.9842 47.5151 25.9842 47.5053 25.9908C47.4563 26.0176 47.4073 26.0576 47.3583 26.0843C47.3583 26.0843 47.3485 26.091 47.3387 26.0977C47.2897 26.1311 47.2407 26.1645 47.1819 26.1912C46.8586 26.3915 46.545 26.5919 46.2216 26.7989C46.2216 26.7989 46.2118 26.8056 46.202 26.8056C46.153 26.8323 46.104 26.8657 46.0551 26.8991L46.0355 26.9124C45.9865 26.9458 45.9375 26.9725 45.8983 27.0059C45.8983 27.0059 45.8885 27.0126 45.8787 27.0193C45.8297 27.0527 45.7905 27.0794 45.7415 27.1127C45.7415 27.1127 45.7317 27.1194 45.7219 27.1261C45.4573 27.2931 45.2025 27.46 44.9478 27.627C44.9478 27.627 44.938 27.627 44.9282 27.6336C44.8792 27.667 44.84 27.6871 44.8008 27.7204C44.791 27.7271 44.7812 27.7338 44.7616 27.7472C44.7224 27.7739 44.6832 27.8006 44.6342 27.8273C44.6244 27.834 44.6048 27.8407 44.595 27.854C44.5558 27.8807 44.5068 27.9074 44.4676 27.9408C44.4578 27.9475 44.4382 27.9542 44.4284 27.9676C44.3892 27.9943 44.3402 28.021 44.301 28.0543C44.2912 28.061 44.2814 28.0677 44.2716 28.0744C44.2227 28.1078 44.1835 28.1278 44.1443 28.1612C44.1443 28.1612 44.1345 28.1679 44.1247 28.1746C43.9287 28.3081 43.7327 28.435 43.5367 28.5686C43.5269 28.5753 43.5171 28.5819 43.4975 28.5953C43.4583 28.622 43.4191 28.6487 43.3799 28.6754C43.3701 28.6821 43.3505 28.6954 43.3407 28.7021C43.3015 28.7288 43.2624 28.7555 43.2232 28.7823C43.2036 28.7956 43.1938 28.8023 43.1742 28.8156C43.135 28.8424 43.0958 28.8691 43.0566 28.8958C43.037 28.9091 43.0272 28.9158 43.0076 28.9292C42.9684 28.9559 42.9292 28.9826 42.8998 29.0026C42.8802 29.016 42.8606 29.0293 42.841 29.0427C42.8018 29.0694 42.7626 29.0961 42.7332 29.1162C42.7234 29.1228 42.7136 29.1295 42.694 29.1429C42.5568 29.2364 42.4196 29.3299 42.2825 29.4234C42.2727 29.43 42.2629 29.4367 42.2531 29.4434C42.2139 29.4701 42.1845 29.4901 42.1453 29.5168C42.1257 29.5302 42.1061 29.5436 42.0865 29.5569C42.0473 29.5836 42.0179 29.6036 41.9787 29.6304C41.9591 29.6437 41.9395 29.6571 41.9199 29.6704C41.8807 29.6971 41.8513 29.7172 41.8219 29.7372C41.8023 29.7506 41.7827 29.7639 41.7631 29.7773C41.7337 29.7973 41.6945 29.824 41.6651 29.844C41.6455 29.8574 41.6161 29.8775 41.5965 29.8908C41.5671 29.9109 41.5377 29.9376 41.4985 29.9576C41.4789 29.9709 41.4594 29.991 41.4299 30.0043C41.4006 30.0244 41.3614 30.0511 41.332 30.0711C41.3124 30.0845 41.2928 30.0978 41.2732 30.1112C41.234 30.1379 41.2046 30.1579 41.1752 30.1846C41.1752 30.1846 41.1654 30.1913 41.1654 30.198C41.087 30.2514 41.0086 30.3048 40.9302 30.3649C40.9106 30.3783 40.891 30.3917 40.8714 30.4117C40.842 30.4317 40.8126 30.4518 40.7832 30.4718C40.7538 30.4918 40.7342 30.5052 40.7048 30.5252C40.6754 30.5453 40.646 30.5653 40.6166 30.5853C40.5872 30.6054 40.5676 30.6254 40.5383 30.6388C40.5088 30.6588 40.4893 30.6788 40.4599 30.6988C40.4305 30.7189 40.4109 30.7389 40.3815 30.7523C40.3521 30.7723 40.3227 30.7923 40.2933 30.8124C40.2639 30.8324 40.2443 30.8458 40.2149 30.8658C40.1855 30.8858 40.1561 30.9059 40.1267 30.9259C40.0973 30.9459 40.0679 30.966 40.0483 30.986C40.0189 31.0061 39.9993 31.0261 39.9699 31.0461C39.9405 31.0661 39.9111 31.0929 39.8719 31.1129C39.8523 31.1262 39.8327 31.1463 39.8033 31.1596C39.7543 31.1997 39.6955 31.2331 39.6465 31.2732C39.6269 31.2865 39.5975 31.3066 39.5779 31.3199C39.5486 31.3399 39.5191 31.3666 39.4799 31.3867C39.4506 31.4067 39.431 31.4201 39.4114 31.4401C39.382 31.4601 39.3526 31.4802 39.3232 31.5069C39.2938 31.5269 39.2742 31.5403 39.2448 31.5603C39.2154 31.5803 39.186 31.607 39.1566 31.6271C39.1272 31.6471 39.1076 31.6605 39.0782 31.6805C39.0488 31.7006 39.0194 31.7206 38.99 31.7406C38.9606 31.7606 38.941 31.7807 38.9116 31.794C38.8822 31.8141 38.8528 31.8341 38.8234 31.8608C38.8038 31.8742 38.7744 31.9009 38.7549 31.9142C38.7254 31.9343 38.696 31.961 38.6568 31.981C38.6373 31.9944 38.6078 32.0144 38.5981 32.0278C38.5589 32.0545 38.5197 32.0879 38.4805 32.1146C38.4707 32.1213 38.4511 32.1346 38.4413 32.148C38.3923 32.188 38.3335 32.2281 38.2845 32.2682C38.2747 32.2749 38.2649 32.2815 38.2453 32.2949C38.2061 32.3283 38.1571 32.355 38.1179 32.3884C38.0983 32.4017 38.0885 32.4151 38.0689 32.4285C38.0297 32.4552 37.9905 32.4819 37.9611 32.5086C37.9415 32.522 37.9219 32.5353 37.9023 32.5487C37.8729 32.5754 37.8337 32.6021 37.8044 32.6221C37.7847 32.6355 37.7652 32.6488 37.7456 32.6689C37.7162 32.6956 37.6769 32.7156 37.6476 32.7423C37.628 32.7557 37.6084 32.7757 37.579 32.7891C37.5496 32.8158 37.5103 32.8358 37.481 32.8625C37.4614 32.8759 37.4418 32.8959 37.4222 32.9093C37.383 32.936 37.3536 32.9627 37.3144 32.9894C37.2948 33.0028 37.285 33.0161 37.2654 33.0295C37.2164 33.0696 37.1674 33.1029 37.1184 33.143C37.1184 33.143 37.1184 33.143 37.1086 33.1497C37.0498 33.1897 37.0008 33.2298 36.942 33.2766C36.942 33.2766 36.9323 33.2832 36.9225 33.2899C36.8735 33.3233 36.8244 33.3634 36.7754 33.3968C36.7656 33.4034 36.7558 33.4101 36.746 33.4235C36.7068 33.4569 36.6676 33.4836 36.6285 33.517C36.6089 33.5303 36.5991 33.5437 36.5795 33.5504C36.5403 33.5771 36.5011 33.6105 36.4717 33.6372C36.4521 33.6505 36.4423 33.6639 36.4227 33.6773C36.3835 33.704 36.3541 33.7307 36.3149 33.7641C36.2953 33.7774 36.2757 33.7908 36.2659 33.8041C36.2267 33.8308 36.1875 33.8642 36.1483 33.8909C36.1287 33.9043 36.1189 33.911 36.1091 33.9243C36.0699 33.9577 36.0209 33.9911 35.9817 34.0245C35.9817 34.0312 35.9621 34.0379 35.9523 34.0445C35.7955 34.1714 35.6388 34.2916 35.4722 34.4185C35.4722 34.4185 35.4526 34.4318 35.4526 34.4385C35.4134 34.4719 35.3644 34.5053 35.3154 34.5454C35.3056 34.5521 35.2958 34.5654 35.2762 34.5721C35.237 34.6055 35.1978 34.6389 35.1488 34.6723C35.139 34.6789 35.1292 34.6923 35.1096 34.699C35.0704 34.7324 35.0312 34.7658 34.9822 34.7991C34.9724 34.8058 34.9626 34.8192 34.943 34.8259C34.9038 34.8593 34.8548 34.8926 34.8156 34.926C34.8156 34.9327 34.7961 34.9394 34.7863 34.9461C34.7373 34.9861 34.6883 35.0262 34.6393 35.0663C34.4237 35.2399 34.2179 35.4135 34.0023 35.5805C34.0023 35.5805 33.9926 35.5938 33.9828 35.5938C33.9338 35.6339 33.8847 35.6673 33.8456 35.7074C33.8456 35.714 33.8358 35.714 33.826 35.7274C33.777 35.7608 33.7378 35.8008 33.6888 35.8409C33.6888 35.8409 33.6692 35.8543 33.6692 35.861C33.6202 35.901 33.5712 35.9411 33.5222 35.9811C33.2576 36.2015 33.0029 36.4219 32.7383 36.6356C32.6893 36.6824 32.6403 36.7224 32.5913 36.7625C32.5913 36.7625 32.5815 36.7692 32.5815 36.7759C32.5325 36.8159 32.4835 36.856 32.4443 36.896C32.4443 36.896 32.4443 36.896 32.4443 36.9027L145.201 99.0617L145.24 99.0417ZM3.361 121.74L144.907 100.224C144.877 100.13 144.858 99.9966 144.858 99.8364C144.858 99.636 144.877 99.5158 144.907 99.4557L3.12583 78.667C1.90095 82.547 1.00926 86.5137 0.46052 90.5473C0.46052 90.6007 0.450724 90.6474 0.440928 90.7008C0.440928 90.7543 0.431131 90.801 0.421335 90.8544C0.421335 90.8544 0.421335 90.8544 0.421335 90.8611C0.421335 90.9079 0.411509 90.9613 0.401712 91.0147C0.372324 91.2818 0.333109 91.5423 0.30372 91.8027C0.30372 91.8561 0.293924 91.9029 0.284128 91.9563C0.284128 91.9563 0.284128 91.9563 0.284128 91.963C0.284128 92.0097 0.274362 92.0632 0.264566 92.1099C0.264566 92.1099 0.264566 92.1166 0.264566 92.1233C0.264566 92.17 0.25474 92.2234 0.244944 92.2702C0.244944 92.2702 0.244943 92.2769 0.244943 92.2835C0.244943 92.3303 0.235147 92.3837 0.225351 92.4304C0.225351 92.4304 0.225351 92.4371 0.225351 92.4438C0.225351 92.4906 0.215555 92.544 0.205759 92.5907C0.205759 92.5907 0.205759 92.5974 0.205759 92.6041C0.205759 92.6508 0.195932 92.7042 0.186136 92.751C0.186136 92.751 0.186136 92.751 0.186136 92.7643C0.166544 92.9714 0.146951 93.1784 0.127329 93.3854C0.127329 93.3854 0.127329 93.3921 0.127329 93.3988C0.127329 93.4455 0.127359 93.4989 0.117563 93.5457C0.117563 93.5457 0.117563 93.5524 0.117563 93.559C0.117563 93.6058 0.117563 93.6525 0.107767 93.706C0.107767 93.706 0.107767 93.7193 0.107767 93.726C0.107767 93.7727 0.107767 93.8195 0.0979707 93.8662C0.0979707 93.8662 0.0979707 93.8796 0.0979707 93.8863C0.0979707 93.933 0.0979707 93.9797 0.0881745 94.0265C0.0881745 94.0265 0.0881745 94.0398 0.0881745 94.0465C0.0881745 94.0933 0.0881745 94.14 0.0783784 94.1868L0.0783784 94.2001C0.0783784 94.2469 0.0783479 94.3003 0.0685517 94.347C0.0685517 94.347 0.0685517 94.3537 0.0685517 94.3604C0.0685517 94.4071 0.0685517 94.4606 0.0587556 94.5073C0.0587556 94.5073 0.0587556 94.5073 0.0587556 94.514C0.0587556 94.5607 0.0587556 94.6142 0.0489594 94.6676C0.0489594 94.6676 0.0489594 94.6676 0.0489594 94.6743C0.0489594 94.7744 0.0293366 94.8813 0.0293366 94.9815C0.0293366 94.9815 0.0293366 94.9815 0.0293366 94.9881C0.0293366 95.0349 0.0293671 95.0883 0.0195709 95.1417C0.0195709 95.1417 0.0195709 95.1417 0.0195709 95.1484C0.0195709 95.1951 0.0195709 95.2419 0.0195709 95.2953C0.0195709 95.2953 0.0195709 95.3087 0.0195709 95.3154C0.0195709 95.3621 0.0195709 95.4155 0.0195709 95.4623L0.0195709 95.4756C0.0195709 95.5224 0.0195709 95.5758 0.0195709 95.6225C0.0195709 95.6225 0.0195709 95.6359 0.0195709 95.6426C0.0195709 95.6893 0.0195709 95.7427 0.0195709 95.7895L0.0195709 95.8028C0.0195709 95.8496 0.0195709 95.903 0.0195709 95.9498C0.0195709 95.9498 0.0195709 95.9631 0.0195709 95.9698C0.0195709 96.0232 0.0195709 96.0633 0.0195708 96.1167C0.0195708 96.1167 0.0195708 96.1167 0.0195708 96.1234C0.0195708 96.1768 0.0195708 96.2236 0.0195708 96.277C0.0195708 96.3838 0.00977467 96.484 -2.14773e-05 96.5909C-2.14819e-05 96.6443 -2.1486e-05 96.691 -2.14907e-05 96.7445L-2.14913e-05 96.7511C-2.14959e-05 96.8045 -2.15e-05 96.8513 -2.15041e-05 96.898L-2.15053e-05 96.9114C-2.15094e-05 96.9582 -2.1514e-05 97.0116 -2.15181e-05 97.0583L-2.15193e-05 97.0717C-2.15234e-05 97.1184 -2.15275e-05 97.1652 -2.15316e-05 97.2119C-2.15321e-05 97.2186 -2.15327e-05 97.2253 -2.15333e-05 97.2319C-2.15374e-05 97.2787 -2.15415e-05 97.3254 -2.15456e-05 97.3722C-2.15456e-05 97.3722 -2.15467e-05 97.3855 -2.15473e-05 97.3922C-2.15514e-05 97.439 -2.15555e-05 97.4857 -2.15602e-05 97.5391C-2.15602e-05 97.5391 -2.15613e-05 97.5525 -2.15619e-05 97.5592C-2.1566e-05 97.6059 -2.15707e-05 97.6593 -2.15748e-05 97.7061L-2.15759e-05 97.7194C-2.15806e-05 97.7729 -2.15847e-05 97.8196 -2.15888e-05 97.8664C-2.15888e-05 97.8664 -2.15894e-05 97.873 -2.15899e-05 97.8797C-2.15946e-05 97.9331 -2.15987e-05 97.9799 -2.16034e-05 98.0333C-2.1608e-05 98.0867 -2.16121e-05 98.1335 -2.16168e-05 98.1869C-2.16215e-05 98.2403 -2.16261e-05 98.2937 -2.16302e-05 98.3405C-2.16302e-05 98.3405 -2.16302e-05 98.3405 -2.16308e-05 98.3472C-2.16355e-05 98.4006 -2.1639e-05 98.4407 -2.16437e-05 98.4941C-2.16437e-05 98.4941 -2.16448e-05 98.5074 -2.16454e-05 98.5141C-2.16495e-05 98.5609 -2.16536e-05 98.6076 -2.16577e-05 98.6544C-2.16577e-05 98.6544 -2.16588e-05 98.6677 -2.16594e-05 98.6744C-2.16635e-05 98.7212 -2.16676e-05 98.7679 -2.16717e-05 98.8146C-2.16723e-05 98.8213 -2.16728e-05 98.828 -2.16734e-05 98.8347C-2.16775e-05 98.8814 -2.16816e-05 98.9282 -2.16857e-05 98.9749C-2.16863e-05 98.9816 -2.16869e-05 98.9883 -2.16874e-05 98.9949C-2.16915e-05 99.0417 -2.16956e-05 99.0884 -2.16997e-05 99.1352C-2.17003e-05 99.1419 -2.17009e-05 99.1485 -2.17014e-05 99.1552C-2.17055e-05 99.202 -2.17096e-05 99.2487 -2.17137e-05 99.2955C-2.17143e-05 99.3021 -2.17149e-05 99.3088 -2.17155e-05 99.3155C-2.17195e-05 99.3622 -2.17236e-05 99.409 -2.17283e-05 99.4624L-2.17295e-05 99.4758C-2.17341e-05 99.5292 -2.17382e-05 99.5759 -2.17423e-05 99.6227C-2.17476e-05 99.6828 -2.17522e-05 99.7362 -2.17569e-05 99.7896C-2.17616e-05 99.8431 -2.17657e-05 99.8898 -2.17703e-05 99.9432L-2.17715e-05 99.9566C-2.17756e-05 100.003 -2.17797e-05 100.05 -2.17838e-05 100.097C-2.17843e-05 100.103 -2.17849e-05 100.11 -2.17855e-05 100.117C-2.17896e-05 100.164 -2.17937e-05 100.21 -2.17978e-05 100.257C-2.17984e-05 100.264 -2.17995e-05 100.277 -2.18001e-05 100.284C-2.18042e-05 100.331 -2.18083e-05 100.377 -2.18124e-05 100.424C-2.1813e-05 100.431 -2.18135e-05 100.437 -2.18147e-05 100.451C-2.18188e-05 100.497 -2.18229e-05 100.544 -2.1827e-05 100.591L-2.18281e-05 100.604C-2.18328e-05 100.658 -2.18369e-05 100.705 -2.1841e-05 100.751C-2.1841e-05 100.751 -2.1841e-05 100.751 -2.18416e-05 100.758C-2.18456e-05 100.805 -2.18497e-05 100.851 -2.18544e-05 100.905L-2.18556e-05 100.918C-2.18597e-05 100.965 -2.18637e-05 101.012 -2.18678e-05 101.058C-2.18684e-05 101.065 -2.18696e-05 101.078 -2.18702e-05 101.085C-2.18743e-05 101.132 -2.18783e-05 101.179 -2.18824e-05 101.225C-2.1883e-05 101.232 -2.18836e-05 101.239 -2.18848e-05 101.252C-2.18889e-05 101.299 -2.18929e-05 101.346 -2.1897e-05 101.392C-2.18976e-05 101.399 -2.18988e-05 101.412 -2.18994e-05 101.419C-2.19034e-05 101.466 -2.19075e-05 101.513 -2.19116e-05 101.559C-2.19122e-05 101.566 -2.19128e-05 101.573 -2.1914e-05 101.586C-2.1918e-05 101.633 -2.19221e-05 101.68 -2.19262e-05 101.726C-2.19262e-05 101.726 -2.19274e-05 101.74 -2.1928e-05 101.746C-2.19321e-05 101.793 -2.19356e-05 101.833 -2.19396e-05 101.88C-2.19396e-05 101.88 -2.19408e-05 101.893 -2.19414e-05 101.9C-2.19455e-05 101.947 -2.1949e-05 101.987 -2.19531e-05 102.033C-2.19542e-05 102.047 -2.19548e-05 102.053 -2.1956e-05 102.067C-2.19601e-05 102.114 -2.19636e-05 102.154 -2.19677e-05 102.2C-2.19688e-05 102.214 -2.19694e-05 102.22 -2.19706e-05 102.234C-2.19741e-05 102.274 -2.19782e-05 102.321 -2.19817e-05 102.361C-2.19828e-05 102.374 -2.1984e-05 102.387 -2.19852e-05 102.401C-2.19893e-05 102.447 -2.19928e-05 102.488 -2.19963e-05 102.528C-2.19974e-05 102.541 -2.1998e-05 102.548 -2.19992e-05 102.561C-2.20033e-05 102.608 -2.20074e-05 102.654 -2.20109e-05 102.695C-2.20115e-05 102.701 -2.2012e-05 102.708 -2.20132e-05 102.721C-2.20167e-05 102.761 -2.20208e-05 102.808 -2.20243e-05 102.848C-2.20255e-05 102.862 -2.2026e-05 102.868 -2.20272e-05 102.882C-2.20313e-05 102.928 -2.20342e-05 102.962 -2.20383e-05 103.008C-2.20395e-05 103.022 -2.20406e-05 103.035 -2.20412e-05 103.042C-2.20453e-05 103.089 -2.20482e-05 103.122 -2.20523e-05 103.169C-2.20535e-05 103.182 -2.20547e-05 103.195 -2.20558e-05 103.209C-2.20593e-05 103.249 -2.20634e-05 103.296 -2.20669e-05 103.336C-2.20681e-05 103.349 -2.20692e-05 103.362 -2.20704e-05 103.376C-2.20739e-05 103.416 -2.2078e-05 103.463 -2.20815e-05 103.503C-2.20827e-05 103.516 -2.20838e-05 103.529 -2.2085e-05 103.543C-2.20885e-05 103.583 -2.2092e-05 103.623 -2.20955e-05 103.663C-2.20967e-05 103.676 -2.20979e-05 103.69 -2.20996e-05 103.71C-2.21025e-05 103.743 -2.21054e-05 103.776 -2.21084e-05 103.81C-2.21101e-05 103.83 -2.21119e-05 103.85 -2.2113e-05 103.863C-2.2116e-05 103.897 -2.21195e-05 103.937 -2.21224e-05 103.97C-2.21235e-05 103.983 -2.21247e-05 103.997 -2.21265e-05 104.017C-2.213e-05 104.057 -2.21329e-05 104.09 -2.21364e-05 104.13C-2.21381e-05 104.15 -2.21393e-05 104.164 -2.21411e-05 104.184C-2.21446e-05 104.224 -2.21475e-05 104.257 -2.2151e-05 104.297C-2.21527e-05 104.317 -2.21545e-05 104.337 -2.21557e-05 104.351C-2.21592e-05 104.391 -2.21621e-05 104.424 -2.21656e-05 104.464C-2.21673e-05 104.484 -2.21685e-05 104.498 -2.21702e-05 104.518C-2.21732e-05 104.551 -2.21755e-05 104.578 -2.21784e-05 104.611C-2.21808e-05 104.638 -2.21825e-05 104.658 -2.21848e-05 104.685C-2.21872e-05 104.711 -2.21895e-05 104.738 -2.21918e-05 104.765C-2.21942e-05 104.791 -2.21965e-05 104.818 -2.21994e-05 104.852C-2.22018e-05 104.878 -2.22035e-05 104.898 -2.22059e-05 104.925C-2.22088e-05 104.958 -2.22111e-05 104.985 -2.2214e-05 105.019C-2.22158e-05 105.039 -2.22187e-05 105.072 -2.22205e-05 105.092C-2.22222e-05 105.112 -2.22245e-05 105.139 -2.22263e-05 105.159C-2.22292e-05 105.192 -2.22321e-05 105.226 -2.22351e-05 105.259C-2.22368e-05 105.279 -2.22391e-05 105.306 -2.22409e-05 105.326C-2.22438e-05 105.359 -2.22467e-05 105.392 -2.22496e-05 105.426C-2.22514e-05 105.446 -2.22537e-05 105.473 -2.22555e-05 105.493C-2.22572e-05 105.513 -2.2259e-05 105.533 -2.22607e-05 105.553C-2.22637e-05 105.586 -2.22672e-05 105.626 -2.22701e-05 105.66C-2.22712e-05 105.673 -2.2273e-05 105.693 -2.22742e-05 105.706C-2.22777e-05 105.746 -2.22812e-05 105.786 0.00977386 105.827C0.00977386 105.84 0.00977385 105.86 0.00977385 105.873C0.00977385 105.913 0.00977385 105.96 0.01957 106C0.01957 106.014 0.01957 106.027 0.01957 106.04C0.01957 106.094 0.0293661 106.147 0.0391623 106.201C0.0391622 106.287 0.0587545 106.374 0.0587545 106.454C0.0587545 106.454 0.0587545 106.468 0.0587545 106.474C0.0587545 106.521 0.0587545 106.574 0.0685506 106.621C0.0685506 106.621 0.0685506 106.641 0.0685506 106.648C0.0685506 106.695 0.0685812 106.741 0.0783773 106.795C0.0783773 106.795 0.0783773 106.808 0.0783773 106.815C0.509529 111.055 1.32282 115.223 2.50849 119.303C2.50849 119.303 2.50849 119.303 2.50849 119.309C2.52808 119.363 2.53791 119.41 2.5575 119.463C2.5575 119.463 2.5575 119.47 2.5575 119.476C2.5673 119.523 2.58692 119.577 2.59672 119.623C2.59672 119.623 2.59672 119.637 2.59672 119.643C2.60651 119.683 2.62608 119.73 2.63587 119.77C2.63587 119.784 2.6359 119.797 2.6457 119.81C2.6457 119.837 2.66529 119.864 2.66529 119.884C2.66529 119.897 2.66529 119.91 2.67509 119.924C2.68488 119.964 2.69468 120.004 2.71427 120.037C2.71427 120.057 2.72407 120.077 2.73386 120.097C2.73386 120.124 2.75346 120.158 2.76328 120.184C2.76328 120.211 2.78287 120.238 2.78287 120.264C2.78287 120.284 2.79267 120.304 2.80247 120.331C2.80247 120.365 2.82209 120.398 2.83189 120.425C2.83189 120.438 2.83189 120.451 2.84168 120.465C2.85148 120.505 2.86124 120.538 2.88084 120.578C2.88084 120.592 2.88087 120.605 2.89066 120.618C2.90046 120.658 2.92005 120.698 2.92988 120.739C2.92988 120.752 2.92988 120.759 2.92988 120.772C2.93967 120.812 2.95924 120.859 2.96903 120.899C2.96903 120.906 2.96903 120.912 2.96903 120.919C2.98862 120.966 2.99845 121.012 3.00825 121.059C3.07682 121.273 3.14542 121.487 3.21403 121.707L3.361 121.74ZM82.8011 190.023L146.044 101.078C145.779 100.992 145.475 100.825 145.25 100.631L33.1694 163.358C40.3423 169.308 48.495 174.684 57.461 179.372C57.9216 179.612 58.3919 179.852 58.8525 180.093C58.8525 180.093 58.8623 180.093 58.8721 180.099C58.9309 180.126 58.9799 180.153 59.0387 180.186C59.0387 180.186 59.0387 180.186 59.0485 180.186C59.1073 180.213 59.1563 180.246 59.215 180.273C59.215 180.273 59.215 180.273 59.2248 180.273C59.5678 180.447 59.9304 180.627 60.2733 180.801C60.2733 180.801 60.2733 180.801 60.2831 180.807C60.3419 180.834 60.3909 180.861 60.4497 180.887C60.4497 180.887 60.4595 180.887 60.4693 180.894C60.5183 180.921 60.5771 180.948 60.6261 180.974C60.6261 180.974 60.6359 180.981 60.6457 180.988C60.7045 181.014 60.7535 181.041 60.8123 181.068C60.8123 181.068 60.8123 181.068 60.8319 181.074C61.1748 181.248 61.5276 181.415 61.8804 181.589C61.8804 181.589 61.8999 181.595 61.9097 181.602C61.9587 181.629 62.0175 181.655 62.0665 181.675C62.0763 181.675 62.0861 181.689 62.0959 181.689C62.1449 181.716 62.1939 181.736 62.2429 181.762C62.2527 181.762 62.2625 181.776 62.2821 181.782C62.3311 181.809 62.3801 181.829 62.4291 181.856C62.4389 181.856 62.4585 181.869 62.4683 181.876C62.5173 181.903 62.5663 181.923 62.6251 181.949C62.6251 181.949 62.6349 181.949 62.6447 181.956C62.8799 182.069 63.1052 182.176 63.3404 182.29C63.3404 182.29 63.3502 182.29 63.36 182.297C63.409 182.317 63.458 182.343 63.507 182.37C63.5168 182.37 63.5364 182.383 63.5462 182.39C63.5952 182.41 63.6442 182.437 63.6932 182.457C63.7128 182.464 63.7226 182.47 63.7422 182.477C63.7912 182.497 63.8304 182.517 63.8794 182.544C63.899 182.55 63.9186 182.564 63.9381 182.57C63.9773 182.59 64.0263 182.61 64.0753 182.63C64.0949 182.637 64.1145 182.65 64.1341 182.657C64.1831 182.677 64.2223 182.697 64.2713 182.717C64.2909 182.724 64.3007 182.731 64.3203 182.737C64.3693 182.757 64.4183 182.784 64.4575 182.804C64.4575 182.804 64.4673 182.804 64.4771 182.811C64.6437 182.884 64.8004 182.958 64.967 183.038C64.9866 183.044 65.0062 183.058 65.0258 183.065C65.065 183.085 65.114 183.105 65.1532 183.125C65.1728 183.131 65.1924 183.145 65.2218 183.151C65.261 183.171 65.31 183.191 65.3492 183.211C65.3688 183.225 65.3982 183.231 65.4178 183.245C65.4668 183.265 65.4962 183.285 65.5452 183.305C65.5648 183.312 65.5844 183.325 65.604 183.332C65.6432 183.352 65.6921 183.372 65.7313 183.392C65.7509 183.405 65.7705 183.412 65.7999 183.418C65.8391 183.438 65.8881 183.459 65.9273 183.479C65.9469 183.485 65.9665 183.499 65.9861 183.505C66.0253 183.525 66.0743 183.545 66.1135 183.565C66.1331 183.572 66.1429 183.579 66.1625 183.585C66.2605 183.625 66.3585 183.672 66.4565 183.719C66.4663 183.719 66.4761 183.732 66.4957 183.732C66.5349 183.752 66.5838 183.772 66.623 183.786C66.6426 183.799 66.672 183.806 66.6917 183.819C66.7308 183.839 66.77 183.853 66.8092 183.873C66.8386 183.886 66.868 183.899 66.8876 183.906C66.9268 183.926 66.966 183.939 67.0052 183.959C67.0346 183.973 67.064 183.986 67.0836 183.993C67.1228 184.013 67.162 184.026 67.2012 184.04C67.2306 184.053 67.26 184.066 67.2894 184.08C67.3286 184.1 67.358 184.113 67.3972 184.126C67.4266 184.14 67.456 184.153 67.4854 184.166C67.5246 184.18 67.554 184.2 67.5931 184.213C67.6225 184.227 67.6519 184.24 67.6911 184.253C67.7205 184.267 67.7597 184.287 67.7989 184.3C67.8283 184.313 67.8577 184.327 67.8773 184.333C67.9557 184.367 68.0243 184.4 68.1027 184.434C68.1321 184.447 68.1517 184.454 68.1811 184.467C68.2203 184.48 68.2497 184.494 68.2791 184.514C68.3085 184.527 68.3477 184.54 68.3771 184.554C68.4065 184.567 68.4456 184.587 68.475 184.6C68.5044 184.614 68.5436 184.627 68.573 184.641C68.6024 184.654 68.6416 184.667 68.671 184.681C68.7004 184.694 68.7396 184.707 68.769 184.721C68.7984 184.734 68.8376 184.754 68.8768 184.767C68.9062 184.781 68.9454 184.794 68.9748 184.807C69.0042 184.821 69.0336 184.834 69.0728 184.848C69.112 184.861 69.1512 184.881 69.1904 184.894C69.2198 184.908 69.2492 184.921 69.2786 184.934C69.3178 184.954 69.357 184.968 69.3961 184.988C69.4255 185.001 69.4451 185.008 69.4745 185.021C69.5333 185.041 69.5823 185.068 69.6411 185.088C69.6607 185.095 69.6901 185.108 69.7097 185.115C69.7685 185.141 69.8273 185.161 69.8763 185.188C69.8959 185.195 69.9155 185.208 69.9351 185.215C69.9841 185.235 70.0233 185.255 70.0723 185.275C70.1017 185.288 70.1213 185.295 70.1507 185.308C70.1899 185.328 70.2389 185.342 70.2781 185.362C70.3075 185.375 70.3271 185.382 70.3564 185.395C70.3956 185.415 70.4446 185.429 70.4838 185.449C70.5034 185.455 70.5328 185.469 70.5622 185.482C70.6112 185.502 70.6504 185.515 70.6994 185.535C70.719 185.542 70.7484 185.555 70.768 185.562C70.817 185.582 70.8562 185.602 70.9052 185.622C70.9248 185.629 70.9444 185.642 70.9738 185.649C71.0228 185.669 71.0816 185.696 71.1306 185.716C71.1502 185.716 71.16 185.729 71.1698 185.736C71.3069 185.789 71.4441 185.849 71.5813 185.903C71.6009 185.903 71.6107 185.916 71.6205 185.923C71.6793 185.943 71.7283 185.969 71.7871 185.989C71.8067 185.996 71.8263 186.003 71.8459 186.016C71.8949 186.036 71.9439 186.056 71.9929 186.076C72.0125 186.083 72.0321 186.096 72.0615 186.103C72.1105 186.123 72.1595 186.143 72.2085 186.163C72.2281 186.17 72.2477 186.176 72.277 186.19C72.326 186.21 72.375 186.23 72.424 186.25C72.4436 186.257 72.4632 186.263 72.4828 186.27C72.5318 186.29 72.5906 186.31 72.6494 186.337C72.669 186.337 72.6788 186.35 72.6984 186.357C72.9826 186.47 73.257 186.577 73.5411 186.691C73.5411 186.691 73.5607 186.697 73.5705 186.704C73.6293 186.731 73.6979 186.751 73.7567 186.778C73.7665 186.778 73.7763 186.784 73.7861 186.791C73.8449 186.818 73.9037 186.838 73.9625 186.858C73.9723 186.858 73.9919 186.871 74.0017 186.871C74.0605 186.891 74.1192 186.918 74.178 186.938C74.178 186.938 74.1976 186.944 74.2074 186.951C74.276 186.978 74.3348 187.005 74.4034 187.031L74.4132 187.031C74.6974 187.145 74.9914 187.258 75.2853 187.365C75.3539 187.392 75.4225 187.419 75.5009 187.445L75.5107 187.445C75.5793 187.472 75.6479 187.499 75.7067 187.519C75.7067 187.519 75.7165 187.519 75.7263 187.525C75.7949 187.552 75.8635 187.579 75.9321 187.606C78.1956 188.454 80.4886 189.268 82.8207 190.036L82.8011 190.023Z" fill="url(#paint0_radial_1396_54839)"/>
<defs>
<radialGradient id="paint0_radial_1396_54839" cx="0" cy="0" r="1" gradientUnits="userSpaceOnUse" gradientTransform="translate(144.917 99.8698) rotate(-180) scale(146.034 101.513)">
<stop stop-color="#FEB385"/>
<stop offset="1" stop-color="white" stop-opacity="0"/>
</radialGradient>
</defs>
</svg>
