<svg width="14" height="15" viewBox="0 0 14 15" xmlns="http://www.w3.org/2000/svg"><path d="M11.773.75c.308 0 .597.06.868.18.27.114.505.273.703.476.203.203.362.44.476.711.12.271.18.56.18.867 0 .302-.057.586-.172.852-.11.266-.27.505-.484.719l-9.14 9.14L0 14.75l1.055-4.21 9.14-9.134a2.19 2.19 0 0 1 .72-.484c.27-.115.556-.172.858-.172Zm-9.75 9.883c.256.068.495.17.72.305.223.13.424.286.6.468.183.177.34.378.47.602.135.224.236.463.304.719l7.602-7.602-2.094-2.094-7.602 7.602Zm-.992 3.086 2.407-.602a2.086 2.086 0 0 0-.227-.64 2.04 2.04 0 0 0-.398-.54 2.037 2.037 0 0 0-.54-.398 2.087 2.087 0 0 0-.64-.226l-.602 2.406ZM12.25 4.594l.367-.352a2.93 2.93 0 0 0 .32-.36c.094-.124.17-.257.227-.398a1.36 1.36 0 0 0 .086-.5 1.505 1.505 0 0 0-.906-1.367 1.397 1.397 0 0 0-.57-.117 1.36 1.36 0 0 0-.5.086 1.726 1.726 0 0 0-.407.226 3.057 3.057 0 0 0-.36.32c-.109.12-.226.243-.35.368l2.093 2.094Z"/></svg>