<svg width="21" height="20" viewBox="0 0 21 20" fill="none" xmlns="http://www.w3.org/2000/svg">
<path d="M10.552 2.29418C10.8913 1.31688 12.1841 0.866611 12.9829 1.70374C13.1455 1.87416 13.3081 2.05832 13.4176 2.22254C13.7379 2.70305 13.8725 3.33584 13.9218 3.9522C13.9721 4.58034 13.938 5.25446 13.8738 5.86473C13.8093 6.47735 13.7129 7.03948 13.6328 7.44766C13.6294 7.46535 13.6259 7.48277 13.6225 7.49989H14.506C16.3777 7.49989 17.7924 9.19503 17.4576 11.0365L16.7737 14.7983C16.3017 17.3942 13.7078 19.0289 11.1622 18.3347L5.56251 16.8075C4.64894 16.5583 3.95455 15.8144 3.76885 14.8859L3.41581 13.1207C3.13809 11.7321 4.19991 10.5623 5.32905 10.116C5.65163 9.9885 5.94337 9.82668 6.16974 9.62586C7.87583 8.11234 8.49442 6.90276 9.55406 4.77684C9.9084 4.06594 10.2721 3.10043 10.552 2.29418ZM12.5165 7.87851L12.5169 7.87696L12.5187 7.86962L12.5262 7.83852C12.5328 7.81068 12.5426 7.76892 12.5549 7.71482C12.5793 7.60658 12.6135 7.44919 12.6515 7.25525C12.7277 6.86655 12.8188 6.33493 12.8793 5.76005C12.9401 5.18282 12.9685 4.57569 12.925 4.03195C12.8806 3.47644 12.7652 3.04673 12.5855 2.77724C12.5264 2.68859 12.4138 2.55593 12.2594 2.3941C12.0605 2.18565 11.6314 2.23417 11.4967 2.62217C11.2141 3.43598 10.8334 4.45183 10.449 5.22294C9.38216 7.36338 8.69326 8.72396 6.83336 10.3739C6.49304 10.6758 6.08878 10.891 5.69665 11.046C4.81631 11.394 4.25035 12.1944 4.39639 12.9246L4.74943 14.6898C4.86085 15.2469 5.27748 15.6932 5.82562 15.8427L11.4254 17.3699C13.4052 17.9099 15.4227 16.6384 15.7898 14.6194L16.4738 10.8577C16.697 9.62998 15.7538 8.49989 14.506 8.49989H13.0015C12.8476 8.49989 12.7022 8.42895 12.6074 8.3076C12.5127 8.18627 12.4792 8.02785 12.5165 7.87851C12.5165 7.87847 12.5165 7.87855 12.5165 7.87851Z" fill="#1C2024"/>
</svg>
