<svg id="placeholder-svg-light" class="placeholder-svg" width="140" height="140" viewBox="0 0 140 140" fill="none" xmlns="http://www.w3.org/2000/svg">
<path fill-rule="evenodd" clip-rule="evenodd" d="M140 0H0V140H140V0ZM103.357 68.9949C101.8 67.1916 99.3994 62.4831 99.3994 58.0003V50.6373C99.3994 49.2052 99.9684 47.8317 100.981 46.819L103.672 44.1279C104.01 43.7903 104.199 43.3325 104.199 42.8551V35.801C104.199 34.8069 103.393 34.001 102.399 34.001H101.199C100.205 34.001 99.3994 34.8069 99.3994 35.801V37.0008C99.3994 37.995 98.5935 38.8008 97.5994 38.8008H96.3996C95.4054 38.8008 94.5996 37.995 94.5996 37.0008V35.801C94.5996 34.8069 93.7937 34.001 92.7996 34.001H91.5997C90.6056 34.001 89.7997 34.8069 89.7997 35.801V37.0008C89.7997 37.995 88.9938 38.8008 87.9997 38.8008H86.7998C85.8057 38.8008 84.9998 37.995 84.9998 37.0008V35.801C84.9998 34.8069 84.1939 34.001 83.1998 34.001H82C81.0059 34.001 80.2 34.8069 80.2 35.801V42.8551C80.2 43.3325 80.3896 43.7903 80.7272 44.1279L83.4182 46.819C84.4309 47.8317 84.9998 49.2052 84.9998 50.6373V58.0003C84.9998 62.4927 82.568 67.1911 81.0273 69.0019C79.8272 69.5856 79 70.8167 79 72.2411C79 72.269 79.0003 72.2969 79.001 72.3247L79.0006 72.3413C79.0002 72.3607 79 72.3803 79 72.3999C79 74.3919 80.608 75.9998 82.5999 75.9998H101.799C103.791 75.9998 105.399 74.3919 105.399 72.3999L105.399 72.3594L105.398 72.3247C105.399 72.3101 105.399 72.2954 105.399 72.2806C105.399 72.2675 105.399 72.2543 105.399 72.2411C105.399 70.811 104.565 69.5757 103.357 68.9949ZM81.9998 98.5007L81.9997 98.5356L81.9998 98.5703C81.9998 102.674 78.6716 106.001 74.5667 106.001H41.4331C37.3282 106.001 34 102.674 34 98.5703L34.0001 98.5356L34 98.5007C34 94.3586 37.3578 91.0007 41.5 91.0007H43.335L49.9519 74.6499H46.6195C43.6213 74.6499 41.1909 72.2203 41.1909 69.223C41.1909 66.2256 43.6213 63.796 46.6195 63.796H49.9644C46.7908 61.3748 44.7404 57.5551 44.7404 53.2552C44.7404 45.9351 50.6764 40.0009 57.9988 40.0009C65.3213 40.0009 71.2573 45.9351 71.2573 53.2552C71.2573 57.5551 69.2069 61.3748 66.0333 63.796H69.3782C72.3764 63.796 74.8068 66.2256 74.8068 69.223C74.8068 72.2203 72.3764 74.6499 69.3782 74.6499H65.363L72.657 91.0007H74.4998C78.6419 91.0007 81.9998 94.3586 81.9998 98.5007Z" fill="white"/>
</svg>